<svg width="221" height="216" viewBox="0 0 221 216" fill="none" xmlns="http://www.w3.org/2000/svg">
<path d="M78.0093 80H55.481C55.481 77.6341 55.8629 75.4928 56.6265 73.5762C57.3902 71.6595 58.341 70.1471 59.4791 69.0391C60.6171 67.916 61.8524 66.8529 63.1851 65.8496C64.5178 64.8314 65.7457 63.9704 66.8687 63.2666C68.0067 62.5479 68.9576 61.7168 69.7212 60.7734C70.4999 59.8151 70.8892 58.7894 70.8892 57.6963C70.8892 56.4085 70.4849 55.3978 69.6763 54.6641C68.8827 53.9154 67.7522 53.541 66.2847 53.541C65.1168 53.541 64.106 53.8704 63.2525 54.5293C62.414 55.1882 61.8599 55.8395 61.5904 56.4834L61.231 57.4492L55.481 54.709C55.5409 54.4993 55.6382 54.2223 55.773 53.8779C55.9078 53.5335 56.2671 52.9271 56.8511 52.0586C57.4351 51.1751 58.1089 50.404 58.8726 49.7451C59.6363 49.0863 60.7144 48.4873 62.107 47.9482C63.5145 47.3942 65.0569 47.1172 66.7339 47.1172C70.0132 47.1172 72.7086 48.113 74.8199 50.1045C76.9462 52.096 78.0093 54.5443 78.0093 57.4492C78.0093 59.0814 77.6574 60.5638 76.9537 61.8965C76.2499 63.2292 75.329 64.3672 74.191 65.3105C73.053 66.2389 71.885 67.0999 70.6871 67.8936C69.5041 68.6722 68.2912 69.5632 67.0484 70.5664C65.8056 71.5547 64.8622 72.5505 64.2183 73.5537H78.0093V80ZM88.805 56.0791C87.4423 57.9209 86.761 60.5264 86.761 63.8955C86.761 67.2646 87.4423 69.8701 88.805 71.7119C90.1676 73.5537 91.7848 74.4746 93.6565 74.4746C95.5283 74.4746 97.1455 73.5537 98.5081 71.7119C99.8707 69.8701 100.552 67.2646 100.552 63.8955C100.552 60.5264 99.8707 57.9209 98.5081 56.0791C97.1455 54.2373 95.5283 53.3164 93.6565 53.3164C91.7848 53.3164 90.1676 54.2373 88.805 56.0791ZM103.427 51.7441C106.107 54.8138 107.448 58.8643 107.448 63.8955C107.448 68.9268 106.107 72.9847 103.427 76.0693C100.747 79.154 97.4899 80.6963 93.6565 80.6963C89.8232 80.6963 86.5664 79.154 83.886 76.0693C81.2057 72.9847 79.8655 68.9268 79.8655 63.8955C79.8655 58.8643 81.2057 54.8138 83.886 51.7441C86.5664 48.6595 89.8232 47.1172 93.6565 47.1172C97.4899 47.1172 100.747 48.6595 103.427 51.7441ZM125.88 63.6709V69.1963H109.326V63.6709H125.88ZM148.4 80H125.872C125.872 77.6341 126.254 75.4928 127.017 73.5762C127.781 71.6595 128.732 70.1471 129.87 69.0391C131.008 67.916 132.243 66.8529 133.576 65.8496C134.909 64.8314 136.136 63.9704 137.259 63.2666C138.398 62.5479 139.348 61.7168 140.112 60.7734C140.891 59.8151 141.28 58.7894 141.28 57.6963C141.28 56.4085 140.876 55.3978 140.067 54.6641C139.273 53.9154 138.143 53.541 136.676 53.541C135.508 53.541 134.497 53.8704 133.643 54.5293C132.805 55.1882 132.251 55.8395 131.981 56.4834L131.622 57.4492L125.872 54.709C125.932 54.4993 126.029 54.2223 126.164 53.8779C126.299 53.5335 126.658 52.9271 127.242 52.0586C127.826 51.1751 128.5 50.404 129.263 49.7451C130.027 49.0863 131.105 48.4873 132.498 47.9482C133.905 47.3942 135.448 47.1172 137.125 47.1172C140.404 47.1172 143.099 48.113 145.211 50.1045C147.337 52.096 148.4 54.5443 148.4 57.4492C148.4 59.0814 148.048 60.5638 147.344 61.8965C146.641 63.2292 145.72 64.3672 144.582 65.3105C143.444 66.2389 142.276 67.0999 141.078 67.8936C139.895 68.6722 138.682 69.5632 137.439 70.5664C136.196 71.5547 135.253 72.5505 134.609 73.5537H148.4V80ZM156.231 47.791H161.981V80H155.085V56.5508H149.56V52.1709C150.548 52.0511 151.454 51.819 152.278 51.4746C153.101 51.1152 153.738 50.7334 154.187 50.3291C154.651 49.9248 155.04 49.5355 155.355 49.1611C155.684 48.7718 155.916 48.4424 156.051 48.1729L156.231 47.791Z" fill="#333333"/>
<path d="M66.2709 98.5742H73.0209V101H63.5639V88.3965H72.8363V90.8311H66.2709V93.3535H71.3949V95.7793H66.2709V98.5742ZM79.3191 96.4121L76.2605 101H73.1932L77.6053 94.4258L73.5535 88.3965H76.6209L79.3191 92.4482L82.0174 88.3965H85.076L81.0242 94.4258L85.4363 101H82.3777L79.3191 96.4121ZM85.0812 88.3965H94.9777V90.8311H91.383V101H88.6848V90.8311H85.0812V88.3965ZM98.7623 98.5742H105.512V101H96.0553V88.3965H105.328V90.8311H98.7623V93.3535H103.886V95.7793H98.7623V98.5742ZM115.678 88.3965H118.376V101H116.038L109.833 92.9932V101H107.126V88.3965H109.473L115.678 96.4121V88.3965ZM126.204 97.3086C126.204 96.8867 125.99 96.5469 125.562 96.2891C125.14 96.0312 124.621 95.8174 124.006 95.6475C123.397 95.4717 122.787 95.2666 122.178 95.0322C121.575 94.7979 121.059 94.4111 120.631 93.8721C120.204 93.333 119.99 92.6504 119.99 91.8242C119.99 90.8047 120.397 89.9346 121.211 89.2139C122.032 88.4932 123.095 88.1328 124.402 88.1328C124.917 88.1328 125.415 88.1943 125.896 88.3174C126.376 88.4346 126.769 88.5752 127.074 88.7393C127.384 88.8975 127.654 89.0615 127.882 89.2314C128.117 89.3955 128.284 89.5391 128.383 89.6621L128.541 89.8379L126.924 91.5518C126.854 91.4697 126.754 91.3701 126.625 91.2529C126.502 91.1299 126.239 90.9688 125.834 90.7695C125.43 90.5703 125.014 90.4707 124.586 90.4707C124.071 90.4707 123.655 90.6025 123.338 90.8662C123.028 91.1299 122.872 91.4492 122.872 91.8242C122.872 92.2461 123.083 92.5859 123.505 92.8438C123.933 93.0957 124.449 93.3096 125.052 93.4854C125.662 93.6611 126.271 93.8662 126.88 94.1006C127.496 94.335 128.017 94.7217 128.445 95.2607C128.872 95.7998 129.086 96.4824 129.086 97.3086C129.086 98.4746 128.662 99.4268 127.812 100.165C126.968 100.903 125.802 101.272 124.314 101.272C123.728 101.272 123.16 101.199 122.609 101.053C122.064 100.912 121.613 100.742 121.255 100.543C120.904 100.344 120.593 100.142 120.324 99.9365C120.054 99.7314 119.861 99.5586 119.744 99.418L119.541 99.1982L121.167 97.5811C121.249 97.6748 121.364 97.7979 121.51 97.9502C121.662 98.0967 121.996 98.2959 122.512 98.5479C123.028 98.7998 123.567 98.9258 124.129 98.9258C124.78 98.9258 125.287 98.7734 125.65 98.4688C126.019 98.1641 126.204 97.7773 126.204 97.3086ZM130.603 101V88.3965H133.31V101H130.603ZM139.064 101L134.388 88.3965H137.271L140.505 97.7568L143.748 88.3965H146.631L141.946 101H139.064ZM150.407 98.5742H157.157V101H147.7V88.3965H156.972V90.8311H150.407V93.3535H155.531V95.7793H150.407V98.5742ZM71.532 115.985C72.0828 116.554 72.742 116.838 73.5096 116.838C74.2771 116.838 74.9334 116.554 75.4783 115.985C76.0232 115.417 76.2957 114.711 76.2957 113.867V106.396H78.9939V113.867C78.9939 115.402 78.4725 116.688 77.4295 117.726C76.3865 118.757 75.077 119.272 73.5008 119.272C71.9305 119.272 70.6238 118.757 69.5809 117.726C68.5379 116.688 68.0164 115.402 68.0164 113.867V106.396H70.7146V113.867C70.7146 114.705 70.9871 115.411 71.532 115.985ZM81.2492 106.396H86.5578C87.8527 106.396 88.925 106.804 89.7746 107.618C90.6301 108.427 91.0578 109.432 91.0578 110.633C91.0578 111.828 90.633 112.833 89.7834 113.647C88.9338 114.456 87.8586 114.86 86.5578 114.86H83.9563V119H81.2492V106.396ZM86.4699 108.831H83.9563V112.426H86.4699C87.009 112.426 87.4572 112.253 87.8147 111.907C88.1779 111.562 88.3596 111.137 88.3596 110.633C88.3596 110.129 88.1779 109.704 87.8147 109.358C87.4572 109.007 87.009 108.831 86.4699 108.831ZM99.2457 112.162H104.194V116.838C104.147 116.896 104.071 116.984 103.965 117.102C103.866 117.213 103.64 117.409 103.289 117.69C102.943 117.966 102.574 118.212 102.181 118.429C101.795 118.64 101.285 118.833 100.652 119.009C100.025 119.185 99.3775 119.272 98.7096 119.272C96.7877 119.272 95.1646 118.631 93.8404 117.348C92.5221 116.059 91.8629 114.509 91.8629 112.698C91.8629 110.888 92.5221 109.341 93.8404 108.058C95.1646 106.774 96.7877 106.133 98.7096 106.133C99.3717 106.133 100.002 106.221 100.599 106.396C101.197 106.566 101.686 106.774 102.067 107.021C102.454 107.267 102.794 107.513 103.087 107.759C103.385 108.005 103.599 108.213 103.728 108.383L103.93 108.646L102.216 110.36C102.181 110.313 102.131 110.249 102.067 110.167C102.008 110.079 101.871 109.933 101.654 109.728C101.443 109.522 101.212 109.344 100.96 109.191C100.708 109.033 100.377 108.89 99.9664 108.761C99.5563 108.626 99.1373 108.559 98.7096 108.559C97.5318 108.559 96.5475 108.954 95.7564 109.745C94.9654 110.536 94.5699 111.521 94.5699 112.698C94.5699 113.876 94.9654 114.86 95.7564 115.651C96.5475 116.442 97.5318 116.838 98.7096 116.838C99.2721 116.838 99.7848 116.756 100.248 116.592C100.711 116.422 101.036 116.252 101.223 116.082L101.496 115.854V114.14H99.2457V112.162ZM106.256 119V106.396H111.837C113.085 106.396 114.116 106.798 114.931 107.601C115.751 108.397 116.161 109.376 116.161 110.536C116.161 111.04 116.082 111.512 115.924 111.951C115.766 112.391 115.578 112.745 115.361 113.015C115.15 113.284 114.934 113.516 114.711 113.709C114.488 113.902 114.298 114.034 114.14 114.104L113.911 114.228L116.609 119H113.727L111.301 114.588H108.963V119H106.256ZM113.463 110.536C113.463 110.044 113.299 109.637 112.971 109.314C112.648 108.992 112.241 108.831 111.749 108.831H108.963V112.162H111.749C112.241 112.162 112.648 112.007 112.971 111.696C113.299 111.38 113.463 110.993 113.463 110.536ZM124.621 113.691L123.092 109.552L121.554 113.691H124.621ZM125.518 116.029H120.658L119.577 119H116.694L121.651 106.396H124.525L129.482 119H126.599L125.518 116.029ZM130.384 106.396H135.068C136.902 106.396 138.44 107.006 139.682 108.225C140.925 109.443 141.546 110.935 141.546 112.698C141.546 114.462 140.925 115.953 139.682 117.172C138.44 118.391 136.902 119 135.068 119H130.384V106.396ZM135.068 108.831H133.091V116.574H135.068C136.111 116.574 137.002 116.199 137.74 115.449C138.478 114.699 138.847 113.785 138.847 112.707C138.847 111.623 138.487 110.706 137.766 109.956C137.046 109.206 136.146 108.831 135.068 108.831ZM145.866 116.574H152.616V119H143.159V106.396H152.432V108.831H145.866V111.354H150.99V113.779H145.866V116.574Z" fill="#333333"/>
<path fill-rule="evenodd" clip-rule="evenodd" d="M152.995 11.7696C151.227 15.0017 144.06 15.7945 139.211 14.5748C141.651 12.349 146.866 10.2451 151.379 11.3732L152.995 11.7696L151.562 10.9159C147.598 8.50706 145.432 3.29306 145.28 0.0304912C149.58 2.59176 154.032 8.23264 152.995 11.7696ZM110.515 206.822C112.04 206.822 113.26 208.042 113.26 209.566C113.26 211.091 112.04 212.311 110.515 212.311C108.99 212.311 107.771 211.091 107.771 209.566C107.771 208.042 108.99 206.822 110.515 206.822ZM146.866 8.90345L145.615 7.80576C142.139 4.75663 136.497 4.23828 133.326 5.09204C137.107 8.38509 143.816 10.9769 146.866 8.90345ZM74.3782 8.90345C77.4278 10.9464 84.1367 8.38509 87.9182 5.12253C84.7467 4.26877 79.1355 4.78713 75.6285 7.83625L74.3782 8.90345ZM103.44 209.597C102.586 213.164 95.908 215.848 90.9372 216C92.6754 213.225 97.1583 209.78 101.794 209.658L103.44 209.597C103.501 205.907 97.6767 201.7 92.8889 200.327C93.8953 203.468 97.4022 207.889 101.855 209.139L103.44 209.597ZM93.0414 208.225C91.8521 211.701 84.9296 213.683 79.9589 213.347C81.9716 210.756 86.7898 207.798 91.3946 208.103L93.0414 208.225L91.4861 207.615C87.1863 205.907 84.1367 201.151 83.4659 197.949C88.1011 199.779 93.4683 204.566 93.0414 208.225ZM82.8559 205.785C81.3007 209.139 74.2257 210.42 69.316 209.566C71.6031 207.188 76.6654 204.718 81.2092 205.511L82.8559 205.785C83.6488 202.187 78.8 196.882 74.3477 194.595C74.7137 197.858 77.2448 202.889 81.3617 205.023L82.8559 205.785ZM72.9449 202.34C71.0542 205.511 63.8878 206.06 59.1 204.718C61.6007 202.584 66.9069 200.632 71.3592 201.883L72.9449 202.34L71.5422 201.425C67.6692 198.894 65.6565 193.619 65.6261 190.326C69.8039 193.101 74.1038 198.864 72.9449 202.34ZM63.4304 197.919L62.1496 196.882C58.5511 193.985 57.0568 188.527 57.3618 185.265C61.2347 188.405 64.9247 194.565 63.4304 197.919L61.8751 197.309C57.5753 195.632 52.1166 197.004 49.4025 198.894C54.0683 200.724 61.2652 200.907 63.4304 197.919ZM54.4342 192.583C51.9641 195.296 44.8282 194.412 40.3759 192.156C43.2424 190.57 48.8231 189.717 52.94 191.82L54.4342 192.583L53.2449 191.424C49.9514 188.161 49.0366 182.612 49.6465 179.38C53.2144 182.856 56.264 189.381 54.4342 192.583ZM45.987 186.332C48.1217 183.344 45.7431 176.544 42.5715 172.702C41.6262 175.843 41.9921 181.484 44.9197 185.051L45.987 186.332L44.5842 185.417C40.7113 182.887 35.0697 183.191 32.0506 184.472C36.259 187.216 43.2729 188.802 45.987 186.332ZM38.2412 179.289C35.2831 181.453 28.4522 179.167 24.5488 176.056C27.6898 175.081 33.3314 175.355 36.9299 178.252L38.2412 179.289C40.6808 176.514 39.0036 169.531 36.2285 165.385C34.9782 168.434 34.7647 174.044 37.3263 177.916L38.2412 179.289ZM31.2273 171.483C28.0557 173.343 21.4992 170.385 17.9313 166.879C21.1638 166.208 26.714 167.062 30.0379 170.324L31.2273 171.483C33.9109 168.983 32.9655 161.848 30.6174 157.426C29.0621 160.323 28.2692 165.903 30.4649 169.989L31.2273 171.483ZM25.0367 163.037C27.9643 160.811 27.7203 153.645 25.8296 149.011C23.9999 151.724 22.6581 157.213 24.3963 161.512L25.0367 163.037L23.9694 161.756C21.0113 158.189 15.5526 156.786 12.2896 157.121C15.4917 160.933 21.7127 164.561 25.0367 163.037ZM19.7305 153.981C16.254 155.17 10.4294 150.962 7.65434 146.815C10.9478 146.815 16.2235 148.767 18.8156 152.609L19.7305 153.981C22.8715 152.06 23.3595 144.894 21.9567 140.107C19.8525 142.638 17.9618 147.944 19.2731 152.395L19.7305 153.981ZM15.3697 144.437L15.0647 142.791C14.2108 138.247 16.62 133.155 18.9681 130.838C19.883 135.778 18.6937 142.852 15.3697 144.437L14.5768 142.973C12.4116 138.888 7.31889 136.418 4.05589 136.082C6.43452 140.504 11.8017 145.291 15.3697 144.437ZM11.9847 134.527C8.32524 134.985 3.47647 129.71 1.58576 125.075C4.81827 125.746 9.60604 128.704 11.3748 132.972L11.9847 134.527C15.4612 133.277 17.3519 126.356 16.9249 121.386C14.3633 123.429 11.4358 128.277 11.8322 132.881L11.9847 134.527ZM9.63654 124.313C5.9466 124.404 1.64675 118.641 0.243963 113.854C3.38499 114.83 7.86781 118.276 9.17911 122.697L9.63654 124.313C13.2045 123.429 15.7966 116.721 15.8881 111.72C13.113 113.519 9.72803 118.032 9.66703 122.636L9.63654 124.313ZM8.29474 113.915L8.47771 112.269C9.02663 107.665 12.8386 103.518 15.7661 102.024C15.1867 106.963 11.9542 113.397 8.29474 113.915L7.98979 112.269C7.13592 107.726 3.01904 103.853 0 102.573C0.945357 107.482 4.6353 113.641 8.29474 113.915ZM8.02028 103.426L8.38623 101.81C9.39258 97.2976 13.6009 93.5472 16.681 92.358C15.5831 97.2366 11.7102 103.274 8.02028 103.426L7.86781 101.78C7.47137 97.1756 3.78143 92.9068 0.884366 91.3213C1.3418 96.2914 4.39133 102.786 8.02028 103.426ZM8.81316 92.9678L9.33158 91.3823C10.7954 86.9915 15.3697 83.6985 18.5412 82.8142C16.9554 87.5709 12.5031 93.1813 8.81316 92.9678L8.84366 91.2908C8.90465 86.6561 5.67214 82.0519 2.95805 80.192C2.89706 85.1926 5.2757 91.9921 8.81316 92.9678ZM10.6429 82.6618L11.3138 81.1372C13.2045 76.8989 18.0838 74.0937 21.3468 73.5449C19.3036 78.0881 14.2718 83.2411 10.6429 82.6618L10.8259 81.0153C11.3443 76.4111 8.5997 71.502 6.09908 69.3676C5.51966 74.3072 7.2274 81.2897 10.6429 82.6618ZM13.5095 72.5692L14.3328 71.1361C16.6505 67.1112 21.7737 64.7939 25.0672 64.5805C22.5971 68.9102 17.0774 73.5144 13.5095 72.5692L13.8754 70.9531C14.8512 66.4404 12.6251 61.2569 10.3379 58.8786C9.27059 63.7572 10.2464 70.8922 13.5095 72.5692ZM17.3824 62.8425L18.3582 61.5009C21.0418 57.7504 26.409 55.9514 29.7025 56.0429C26.7749 60.0983 20.8283 64.1231 17.3824 62.8425L17.9008 61.2569C19.3341 56.8662 17.6263 51.4997 15.5831 48.908C14.0279 53.6341 14.3023 60.83 17.3824 62.8425ZM22.2006 53.5121C19.3341 51.1948 19.7915 44.0294 21.8347 39.4557C23.6034 42.2304 24.7622 47.7493 22.8715 51.9876L22.2006 53.5121L23.2985 52.262C26.348 48.786 31.8677 47.5359 35.1307 47.9932C31.8372 51.7436 25.4941 55.1587 22.2006 53.5121ZM27.9338 44.7612C31.0443 46.7126 37.6923 43.9684 41.3517 40.5534C38.1497 39.7911 32.5386 40.4619 29.1536 43.6025L27.9338 44.7612L28.7571 43.3281C31.0443 39.3032 30.4344 33.6928 28.9706 30.7657C26.531 35.0649 25.3417 42.1694 27.9338 44.7612ZM34.5513 36.5895C32.2031 33.7538 34.0938 26.8018 36.9909 22.7465C38.1497 25.8261 38.1802 31.467 35.4966 35.2174L34.5513 36.5895C37.4483 38.8459 44.3403 36.7724 48.3352 33.7538C45.2246 32.6866 39.583 32.7781 35.8931 35.5833L34.5513 36.5895ZM41.9311 29.1496L43.3644 28.2959C47.3288 25.8871 52.94 26.3444 55.9285 27.747C51.6287 30.3083 44.5842 31.7109 41.9311 29.1496L43.029 27.8995C46.0785 24.4235 46.6274 18.8131 45.7736 15.642C42.4496 19.3924 39.888 26.1005 41.9311 29.1496ZM50.0124 22.5025C52.3911 25.3077 59.5575 24.6369 64.0708 22.5025C61.2347 20.8255 55.6846 19.8193 51.5067 21.8012L50.0124 22.5025L51.2322 21.3439C54.6172 18.2033 55.7151 12.6539 55.1966 9.4218C51.5372 12.8368 48.2742 19.24 50.0124 22.5025ZM58.7341 16.6787L60.2894 16.1299C64.6502 14.5748 70.0784 16.1299 72.701 18.1118C68.0352 19.7583 60.8383 19.6973 58.7341 16.6787L60.0454 15.6725C63.7353 12.8673 65.3821 7.47036 65.1991 4.20779C61.2347 7.22643 57.3618 13.2637 58.7341 16.6787ZM68.0047 11.7696C66.9678 8.23264 71.4202 2.62225 75.6895 0C75.5675 3.29306 73.3719 8.47657 69.4075 10.8854L68.0047 11.7696L69.6209 11.3732C74.1038 10.2756 79.349 12.3794 81.7886 14.5748C76.9398 15.764 69.7734 15.0017 68.0047 11.7696ZM117.56 209.597C118.414 213.164 125.092 215.848 130.063 216C128.325 213.225 123.842 209.78 119.206 209.658L117.56 209.597C117.499 205.907 123.323 201.7 128.142 200.327C127.135 203.468 123.628 207.889 119.176 209.139L117.56 209.597ZM127.959 208.225C129.148 211.701 136.07 213.683 141.041 213.347C139.028 210.756 134.21 207.798 129.605 208.103L127.959 208.225L129.514 207.615C133.814 205.907 136.863 201.151 137.534 197.949C132.899 199.779 127.532 204.566 127.959 208.225ZM138.175 205.785C139.73 209.139 146.805 210.42 151.714 209.566C149.427 207.188 144.365 204.718 139.821 205.511L138.175 205.785C137.382 202.187 142.23 196.882 146.683 194.595C146.317 197.858 143.786 202.889 139.669 205.023L138.175 205.785ZM148.055 202.34C149.915 205.511 157.112 206.06 161.9 204.718C159.399 202.584 154.093 200.632 149.641 201.883L148.055 202.34L149.458 201.425C153.331 198.894 155.343 193.619 155.374 190.326C151.196 193.101 146.927 198.864 148.055 202.34ZM157.57 197.919C159.765 200.876 166.932 200.724 171.597 198.894C168.883 197.004 163.425 195.632 159.125 197.309L157.57 197.919C156.075 194.565 159.765 188.375 163.638 185.234C163.943 188.497 162.449 193.955 158.85 196.852L157.57 197.919ZM166.596 192.583C169.066 195.296 176.202 194.412 180.655 192.156C177.788 190.57 172.207 189.717 168.091 191.82L166.596 192.583L167.786 191.424C171.079 188.161 171.994 182.612 171.384 179.38C167.816 182.856 164.767 189.381 166.596 192.583ZM175.013 186.332C172.878 183.344 175.257 176.544 178.428 172.702C179.374 175.843 179.008 181.484 176.08 185.051L175.013 186.332L176.416 185.417C180.289 182.887 185.93 183.191 188.949 184.472C184.771 187.216 177.758 188.802 175.013 186.332ZM182.759 179.289C185.717 181.453 192.548 179.167 196.451 176.056C193.31 175.081 187.669 175.355 184.07 178.252L182.759 179.289C180.319 176.514 181.996 169.531 184.771 165.385C186.022 168.434 186.235 174.044 183.674 177.916L182.759 179.289ZM189.773 171.483L190.566 170.019C192.731 165.933 191.968 160.353 190.383 157.457C188.035 161.848 187.089 168.983 189.773 171.483L190.962 170.324C194.256 167.092 199.836 166.208 203.069 166.879C199.501 170.385 192.944 173.343 189.773 171.483ZM195.963 163.037C193.036 160.811 193.28 153.645 195.17 149.011C197 151.724 198.342 157.213 196.604 161.512L195.963 163.037L197.031 161.756C199.989 158.189 205.447 156.786 208.71 157.121C205.539 160.933 199.318 164.561 195.963 163.037ZM201.269 153.981C204.746 155.17 210.571 150.962 213.346 146.815C210.052 146.815 204.776 148.767 202.184 152.609L201.269 153.981C198.128 152.06 197.641 144.894 199.043 140.107C201.147 142.638 203.038 147.944 201.727 152.395L201.269 153.981ZM205.63 144.437L205.935 142.791C206.789 138.247 204.38 133.155 202.032 130.838C201.117 135.778 202.306 142.852 205.63 144.437L206.423 142.973C208.588 138.888 213.681 136.418 216.944 136.082C214.596 140.504 209.229 145.291 205.63 144.437ZM209.015 134.527C212.675 134.985 217.524 129.71 219.414 125.075C216.182 125.746 211.394 128.704 209.625 132.972L209.015 134.527C205.539 133.277 203.648 126.356 204.075 121.386C206.637 123.429 209.564 128.277 209.168 132.881L209.015 134.527ZM211.363 124.313L211.333 122.636C211.241 118.001 207.887 113.488 205.112 111.72C205.203 116.721 207.795 123.429 211.363 124.313L211.851 122.727C213.163 118.276 217.646 114.861 220.787 113.885C219.353 118.641 215.053 124.404 211.363 124.313ZM212.705 113.915L212.522 112.269C211.973 107.665 208.161 103.518 205.234 102.024C205.813 106.963 209.046 113.397 212.705 113.915L213.01 112.269C213.864 107.726 217.981 103.853 221 102.573C220.085 107.482 216.365 113.641 212.705 113.915ZM212.98 103.426L212.614 101.81C211.607 97.2976 207.399 93.5472 204.319 92.358C205.417 97.2366 209.29 103.274 212.98 103.426L213.132 101.78C213.529 97.1756 217.219 92.9068 220.116 91.3213C219.658 96.2914 216.609 102.786 212.98 103.426ZM212.187 92.9678C215.724 91.9616 218.103 85.1926 218.042 80.192C215.328 82.0519 212.095 86.6866 212.156 91.2908L212.187 92.9678C208.497 93.1813 204.045 87.5709 202.459 82.8142C205.63 83.6985 210.205 86.9915 211.668 91.3823L212.187 92.9678ZM210.357 82.6618C213.773 81.3202 215.48 74.3377 214.901 69.3676C212.4 71.502 209.625 76.4111 210.174 81.0153L210.357 82.6618C206.728 83.2411 201.696 78.0881 199.653 73.5449C202.886 74.0937 207.765 76.9294 209.656 81.1372L210.357 82.6618ZM207.491 72.5692C210.754 70.8922 211.729 63.7572 210.662 58.8786C208.375 61.2569 206.149 66.4099 207.125 70.9531L207.491 72.5692C203.923 73.5144 198.433 68.9102 195.933 64.5805C199.226 64.7939 204.35 67.1112 206.667 71.1361L207.491 72.5692ZM203.618 62.8425C206.698 60.83 206.942 53.6341 205.386 48.908C203.343 51.4997 201.635 56.8662 203.069 61.2569L203.618 62.8425C200.172 64.1536 194.225 60.0983 191.298 56.0429C194.591 55.9514 199.928 57.7199 202.642 61.5009L203.618 62.8425ZM198.799 53.5121C201.666 51.1948 201.208 44.0294 199.165 39.4557C197.397 42.2304 196.238 47.7493 198.128 51.9876L198.799 53.5121L197.702 52.262C194.652 48.786 189.132 47.5359 185.869 47.9932C189.193 51.7436 195.506 55.1587 198.799 53.5121ZM193.066 44.7612C189.956 46.7126 183.308 43.9684 179.648 40.5534C182.85 39.7911 188.461 40.4619 191.846 43.6025L193.066 44.7612L192.243 43.3281C189.956 39.3032 190.566 33.6928 192.029 30.7657C194.5 35.0649 195.689 42.1694 193.066 44.7612ZM186.479 36.5895C188.827 33.7538 186.937 26.8018 184.04 22.7465C182.881 25.8261 182.85 31.467 185.534 35.2174L186.479 36.5895C183.582 38.8459 176.69 36.7724 172.695 33.7538C175.806 32.6866 181.447 32.7781 185.137 35.5833L186.479 36.5895ZM179.069 29.1496L177.636 28.2959C173.671 25.8871 168.06 26.3444 165.071 27.747C169.371 30.3083 176.416 31.7109 179.069 29.1496L177.971 27.8995C174.921 24.4235 174.373 18.8131 175.226 15.642C178.55 19.3924 181.143 26.1005 179.069 29.1496ZM170.988 22.5025C168.609 25.3077 161.443 24.6369 156.929 22.5025C159.765 20.8255 165.315 19.8193 169.493 21.8012L170.988 22.5025L169.768 21.3439C166.383 18.2033 165.285 12.6539 165.803 9.4218C169.463 12.8368 172.726 19.24 170.988 22.5025ZM162.266 16.6787L160.711 16.0994C156.35 14.5443 150.922 16.0994 148.299 18.0813C152.995 19.7583 160.162 19.6973 162.266 16.6787L160.955 15.6725C157.265 12.8673 155.618 7.47036 155.801 4.20779C159.765 7.22643 163.669 13.2637 162.266 16.6787Z" fill="#00D1FF"/>
<path d="M38.9385 143.998H44.4365V145.351H42.4395V151H40.9404V145.351H38.9385V143.998ZM51.0361 143.998V151H49.5371V148.148H46.5391V151H45.0352V143.998H46.5391V146.801H49.5371V143.998H51.0361ZM53.8418 149.652H57.5918V151H52.3379V143.998H57.4893V145.351H53.8418V146.752H56.6885V148.1H53.8418V149.652ZM63.4424 143.852C63.8102 143.852 64.1602 143.9 64.4922 143.998C64.8242 144.092 65.096 144.208 65.3076 144.345C65.5225 144.481 65.7113 144.618 65.874 144.755C66.04 144.892 66.1589 145.007 66.2305 145.102L66.3428 145.248L65.3906 146.2C65.3711 146.174 65.3434 146.138 65.3076 146.093C65.2751 146.044 65.1986 145.963 65.0781 145.849C64.9609 145.735 64.8324 145.635 64.6924 145.551C64.5524 145.463 64.3685 145.383 64.1406 145.312C63.9128 145.237 63.68 145.199 63.4424 145.199C62.7881 145.199 62.2412 145.419 61.8018 145.858C61.3623 146.298 61.1426 146.845 61.1426 147.499C61.1426 148.153 61.3623 148.7 61.8018 149.14C62.2412 149.579 62.7881 149.799 63.4424 149.799C63.6963 149.799 63.9388 149.765 64.1699 149.696C64.4043 149.625 64.598 149.542 64.751 149.447C64.904 149.35 65.0391 149.252 65.1562 149.154C65.2734 149.057 65.3581 148.972 65.4102 148.9L65.4883 148.798L66.3916 149.75C66.3656 149.789 66.3249 149.841 66.2695 149.906C66.2174 149.968 66.0986 150.08 65.9131 150.243C65.7308 150.403 65.5339 150.544 65.3223 150.668C65.1139 150.788 64.8389 150.899 64.4971 151C64.1585 151.101 63.807 151.151 63.4424 151.151C62.3747 151.151 61.473 150.795 60.7373 150.082C60.0049 149.366 59.6387 148.505 59.6387 147.499C59.6387 146.493 60.0049 145.634 60.7373 144.921C61.473 144.208 62.3747 143.852 63.4424 143.852ZM68.6895 145.868C68.2533 146.311 68.0352 146.856 68.0352 147.504C68.0352 148.148 68.2533 148.692 68.6895 149.135C69.1257 149.577 69.6562 149.799 70.2812 149.799C70.9095 149.799 71.4417 149.577 71.8779 149.135C72.3141 148.692 72.5322 148.148 72.5322 147.504C72.5322 146.856 72.3141 146.311 71.8779 145.868C71.4417 145.422 70.9095 145.199 70.2812 145.199C69.6562 145.199 69.1257 145.422 68.6895 145.868ZM67.5811 150.082C66.8486 149.366 66.4824 148.505 66.4824 147.499C66.4824 146.493 66.8486 145.634 67.5811 144.921C68.3167 144.208 69.2168 143.852 70.2812 143.852C71.349 143.852 72.249 144.208 72.9814 144.921C73.7171 145.634 74.085 146.493 74.085 147.499C74.085 148.505 73.7171 149.366 72.9814 150.082C72.249 150.795 71.349 151.151 70.2812 151.151C69.2168 151.151 68.3167 150.795 67.5811 150.082ZM78.7363 147.05L81.1582 143.998H82.4863V151H80.9873V146.332L78.7363 149.198L76.4902 146.352V151H74.9863V143.998H76.3389L78.7363 147.05ZM83.7832 143.998H86.7324C87.4518 143.998 88.0475 144.224 88.5195 144.677C88.9948 145.126 89.2324 145.684 89.2324 146.352C89.2324 147.016 88.9964 147.574 88.5244 148.026C88.0524 148.476 87.4551 148.7 86.7324 148.7H85.2871V151H83.7832V143.998ZM86.6836 145.351H85.2871V147.348H86.6836C86.9831 147.348 87.2321 147.252 87.4307 147.06C87.6325 146.868 87.7334 146.632 87.7334 146.352C87.7334 146.072 87.6325 145.836 87.4307 145.644C87.2321 145.448 86.9831 145.351 86.6836 145.351ZM93.0781 148.051L92.2285 145.751L91.374 148.051H93.0781ZM93.5762 149.35H90.876L90.2754 151H88.6738L91.4277 143.998H93.0244L95.7783 151H94.1768L93.5762 149.35ZM101.03 143.998H102.529V151H101.23L97.7832 146.552V151H96.2793V143.998H97.583L101.03 148.451V143.998ZM104.627 143.998L106.277 147.001L107.928 143.998H109.529L107.029 148.5V151H105.525V148.5L103.025 143.998H104.627ZM111.576 151V143.998H113.08V151H111.576ZM118.127 147.05L120.549 143.998H121.877V151H120.378V146.332L118.127 149.198L115.881 146.352V151H114.377V143.998H115.729L118.127 147.05ZM123.174 143.998H126.123C126.842 143.998 127.438 144.224 127.91 144.677C128.385 145.126 128.623 145.684 128.623 146.352C128.623 147.016 128.387 147.574 127.915 148.026C127.443 148.476 126.846 148.7 126.123 148.7H124.678V151H123.174V143.998ZM126.074 145.351H124.678V147.348H126.074C126.374 147.348 126.623 147.252 126.821 147.06C127.023 146.868 127.124 146.632 127.124 146.352C127.124 146.072 127.023 145.836 126.821 145.644C126.623 145.448 126.374 145.351 126.074 145.351ZM134.222 151H129.471V143.998H130.975V149.652H134.222V151ZM136.373 149.652H140.123V151H134.869V143.998H140.021V145.351H136.373V146.752H139.22V148.1H136.373V149.652ZM144.77 147.05L147.191 143.998H148.52V151H147.021V146.332L144.77 149.198L142.523 146.352V151H141.02V143.998H142.372L144.77 147.05ZM151.32 149.652H155.07V151H149.816V143.998H154.968V145.351H151.32V146.752H154.167V148.1H151.32V149.652ZM160.718 143.998H162.217V151H160.918L157.471 146.552V151H155.967V143.998H157.271L160.718 148.451V143.998ZM162.815 143.998H168.313V145.351H166.316V151H164.817V145.351H162.815V143.998ZM170.416 149.652H174.166V151H168.912V143.998H174.063V145.351H170.416V146.752H173.263V148.1H170.416V149.652ZM175.062 143.998H177.665C178.684 143.998 179.538 144.337 180.229 145.014C180.919 145.691 181.264 146.519 181.264 147.499C181.264 148.479 180.919 149.307 180.229 149.984C179.538 150.661 178.684 151 177.665 151H175.062V143.998ZM177.665 145.351H176.566V149.652H177.665C178.244 149.652 178.739 149.444 179.149 149.027C179.56 148.611 179.765 148.103 179.765 147.504C179.765 146.902 179.564 146.392 179.164 145.976C178.764 145.559 178.264 145.351 177.665 145.351ZM49.5088 160.051L48.6592 157.751L47.8047 160.051H49.5088ZM50.0068 161.35H47.3066L46.7061 163H45.1045L47.8584 155.998H49.4551L52.209 163H50.6074L50.0068 161.35ZM57.4609 155.998H58.96V163H57.6611L54.2139 158.552V163H52.71V155.998H54.0137L57.4609 160.451V155.998ZM63.3115 161.652H67.0615V163H61.8076V155.998H66.959V157.351H63.3115V158.752H66.1582V160.1H63.3115V161.652ZM70.5605 160.451L68.8613 163H67.1572L69.6084 159.348L67.3574 155.998H69.0615L70.5605 158.249L72.0596 155.998H73.7588L71.5078 159.348L73.959 163H72.2598L70.5605 160.451ZM73.7617 155.998H79.2598V157.351H77.2627V163H75.7637V157.351H73.7617V155.998ZM81.3623 161.652H85.1123V163H79.8584V155.998H85.0098V157.351H81.3623V158.752H84.209V160.1H81.3623V161.652ZM90.7598 155.998H92.2588V163H90.96L87.5127 158.552V163H86.0088V155.998H87.3125L90.7598 160.451V155.998ZM96.6074 160.949C96.6074 160.715 96.4886 160.526 96.251 160.383C96.0166 160.24 95.7285 160.121 95.3867 160.026C95.0482 159.929 94.7096 159.815 94.3711 159.685C94.0358 159.554 93.7493 159.34 93.5117 159.04C93.2741 158.741 93.1553 158.361 93.1553 157.902C93.1553 157.336 93.3815 156.853 93.834 156.452C94.2897 156.052 94.8805 155.852 95.6064 155.852C95.8929 155.852 96.1696 155.886 96.4365 155.954C96.7035 156.019 96.9215 156.097 97.0908 156.188C97.2633 156.276 97.4131 156.368 97.54 156.462C97.6702 156.553 97.763 156.633 97.8184 156.701L97.9062 156.799L97.0078 157.751C96.9688 157.705 96.9134 157.65 96.8418 157.585C96.7734 157.517 96.627 157.427 96.4023 157.316C96.1777 157.206 95.9466 157.15 95.709 157.15C95.4225 157.15 95.1914 157.224 95.0156 157.37C94.8431 157.517 94.7568 157.694 94.7568 157.902C94.7568 158.137 94.874 158.326 95.1084 158.469C95.346 158.609 95.6325 158.728 95.9678 158.825C96.3063 158.923 96.6449 159.037 96.9834 159.167C97.3252 159.297 97.6149 159.512 97.8525 159.812C98.0902 160.111 98.209 160.49 98.209 160.949C98.209 161.597 97.973 162.126 97.501 162.536C97.0322 162.946 96.3844 163.151 95.5576 163.151C95.2321 163.151 94.9163 163.111 94.6104 163.029C94.3076 162.951 94.057 162.857 93.8584 162.746C93.6631 162.635 93.4906 162.523 93.3408 162.409C93.1911 162.295 93.0837 162.199 93.0186 162.121L92.9062 161.999L93.8096 161.101C93.8551 161.153 93.9186 161.221 94 161.306C94.0846 161.387 94.2702 161.498 94.5566 161.638C94.8431 161.778 95.1426 161.848 95.4551 161.848C95.8164 161.848 96.098 161.763 96.2998 161.594C96.5049 161.424 96.6074 161.21 96.6074 160.949ZM99.0518 163V155.998H100.556V163H99.0518ZM103.752 163L101.154 155.998H102.756L104.553 161.198L106.354 155.998H107.956L105.354 163H103.752ZM110.054 161.652H113.804V163H108.55V155.998H113.701V157.351H110.054V158.752H112.9V160.1H110.054V161.652ZM118.155 161.325C118.461 161.641 118.827 161.799 119.254 161.799C119.68 161.799 120.045 161.641 120.348 161.325C120.65 161.009 120.802 160.617 120.802 160.148V155.998H122.301V160.148C122.301 161.001 122.011 161.716 121.432 162.292C120.852 162.865 120.125 163.151 119.249 163.151C118.377 163.151 117.651 162.865 117.071 162.292C116.492 161.716 116.202 161.001 116.202 160.148V155.998H117.701V160.148C117.701 160.614 117.853 161.006 118.155 161.325ZM123.554 155.998H126.503C127.222 155.998 127.818 156.224 128.29 156.677C128.765 157.126 129.003 157.684 129.003 158.352C129.003 159.016 128.767 159.574 128.295 160.026C127.823 160.476 127.226 160.7 126.503 160.7H125.058V163H123.554V155.998ZM126.454 157.351H125.058V159.348H126.454C126.754 159.348 127.003 159.252 127.201 159.06C127.403 158.868 127.504 158.632 127.504 158.352C127.504 158.072 127.403 157.836 127.201 157.644C127.003 157.448 126.754 157.351 126.454 157.351ZM133.552 159.201H136.301V161.799C136.275 161.831 136.232 161.88 136.174 161.945C136.118 162.007 135.993 162.116 135.798 162.272C135.606 162.425 135.401 162.562 135.183 162.683C134.968 162.8 134.685 162.907 134.333 163.005C133.985 163.103 133.625 163.151 133.254 163.151C132.186 163.151 131.285 162.795 130.549 162.082C129.816 161.366 129.45 160.505 129.45 159.499C129.45 158.493 129.816 157.634 130.549 156.921C131.285 156.208 132.186 155.852 133.254 155.852C133.622 155.852 133.972 155.9 134.304 155.998C134.636 156.092 134.908 156.208 135.119 156.345C135.334 156.481 135.523 156.618 135.686 156.755C135.852 156.892 135.97 157.007 136.042 157.102L136.154 157.248L135.202 158.2C135.183 158.174 135.155 158.138 135.119 158.093C135.087 158.044 135.01 157.963 134.89 157.849C134.772 157.735 134.644 157.635 134.504 157.551C134.364 157.463 134.18 157.383 133.952 157.312C133.724 157.237 133.492 157.199 133.254 157.199C132.6 157.199 132.053 157.419 131.613 157.858C131.174 158.298 130.954 158.845 130.954 159.499C130.954 160.153 131.174 160.7 131.613 161.14C132.053 161.579 132.6 161.799 133.254 161.799C133.566 161.799 133.851 161.753 134.108 161.662C134.366 161.568 134.546 161.473 134.65 161.379L134.802 161.252V160.3H133.552V159.201ZM137.446 163V155.998H140.547C141.24 155.998 141.813 156.221 142.266 156.667C142.721 157.11 142.949 157.653 142.949 158.298C142.949 158.578 142.905 158.84 142.817 159.084C142.729 159.328 142.625 159.525 142.505 159.675C142.388 159.825 142.267 159.953 142.144 160.061C142.02 160.168 141.914 160.241 141.826 160.28L141.699 160.349L143.198 163H141.597L140.249 160.549H138.95V163H137.446ZM141.45 158.298C141.45 158.024 141.359 157.798 141.177 157.619C140.998 157.44 140.771 157.351 140.498 157.351H138.95V159.201H140.498C140.771 159.201 140.998 159.115 141.177 158.942C141.359 158.767 141.45 158.552 141.45 158.298ZM147.649 160.051L146.8 157.751L145.945 160.051H147.649ZM148.147 161.35H145.447L144.847 163H143.245L145.999 155.998H147.596L150.35 163H148.748L148.147 161.35ZM150.851 155.998H153.453C154.472 155.998 155.326 156.337 156.017 157.014C156.707 157.691 157.052 158.519 157.052 159.499C157.052 160.479 156.707 161.307 156.017 161.984C155.326 162.661 154.472 163 153.453 163H150.851V155.998ZM153.453 157.351H152.354V161.652H153.453C154.033 161.652 154.527 161.444 154.938 161.027C155.348 160.611 155.553 160.103 155.553 159.504C155.553 158.902 155.353 158.392 154.952 157.976C154.552 157.559 154.052 157.351 153.453 157.351ZM157.948 163V155.998H159.452V163H157.948ZM165.5 155.998H166.999V163H165.7L162.253 158.552V163H160.749V155.998H162.053L165.5 160.451V155.998ZM171.997 159.201H174.746V161.799C174.72 161.831 174.678 161.88 174.619 161.945C174.564 162.007 174.438 162.116 174.243 162.272C174.051 162.425 173.846 162.562 173.628 162.683C173.413 162.8 173.13 162.907 172.778 163.005C172.43 163.103 172.07 163.151 171.699 163.151C170.632 163.151 169.73 162.795 168.994 162.082C168.262 161.366 167.896 160.505 167.896 159.499C167.896 158.493 168.262 157.634 168.994 156.921C169.73 156.208 170.632 155.852 171.699 155.852C172.067 155.852 172.417 155.9 172.749 155.998C173.081 156.092 173.353 156.208 173.564 156.345C173.779 156.481 173.968 156.618 174.131 156.755C174.297 156.892 174.416 157.007 174.487 157.102L174.6 157.248L173.647 158.2C173.628 158.174 173.6 158.138 173.564 158.093C173.532 158.044 173.455 157.963 173.335 157.849C173.218 157.735 173.089 157.635 172.949 157.551C172.809 157.463 172.625 157.383 172.397 157.312C172.17 157.237 171.937 157.199 171.699 157.199C171.045 157.199 170.498 157.419 170.059 157.858C169.619 158.298 169.399 158.845 169.399 159.499C169.399 160.153 169.619 160.7 170.059 161.14C170.498 161.579 171.045 161.799 171.699 161.799C172.012 161.799 172.297 161.753 172.554 161.662C172.811 161.568 172.992 161.473 173.096 161.379L173.247 161.252V160.3H171.997V159.201ZM66.0586 172.051L65.209 169.751L64.3545 172.051H66.0586ZM66.5566 173.35H63.8564L63.2559 175H61.6543L64.4082 167.998H66.0049L68.7588 175H67.1572L66.5566 173.35ZM74.0107 167.998H75.5098V175H74.2109L70.7637 170.552V175H69.2598V167.998H70.5635L74.0107 172.451V167.998ZM76.8066 167.998H79.4092C80.4281 167.998 81.2826 168.337 81.9727 169.014C82.6628 169.691 83.0078 170.519 83.0078 171.499C83.0078 172.479 82.6628 173.307 81.9727 173.984C81.2826 174.661 80.4281 175 79.4092 175H76.8066V167.998ZM79.4092 169.351H78.3105V173.652H79.4092C79.9886 173.652 80.4834 173.444 80.8936 173.027C81.3037 172.611 81.5088 172.103 81.5088 171.504C81.5088 170.902 81.3086 170.392 80.9082 169.976C80.5078 169.559 80.0081 169.351 79.4092 169.351ZM85.4551 167.998H88.0576C89.0765 167.998 89.931 168.337 90.6211 169.014C91.3112 169.691 91.6562 170.519 91.6562 171.499C91.6562 172.479 91.3112 173.307 90.6211 173.984C89.931 174.661 89.0765 175 88.0576 175H85.4551V167.998ZM88.0576 169.351H86.959V173.652H88.0576C88.637 173.652 89.1318 173.444 89.542 173.027C89.9521 172.611 90.1572 172.103 90.1572 171.504C90.1572 170.902 89.957 170.392 89.5566 169.976C89.1562 169.559 88.6566 169.351 88.0576 169.351ZM94.0566 173.652H97.8066V175H92.5527V167.998H97.7041V169.351H94.0566V170.752H96.9033V172.1H94.0566V173.652ZM100.603 175L98.0049 167.998H99.6064L101.403 173.198L103.205 167.998H104.807L102.204 175H100.603ZM106.904 173.652H110.654V175H105.4V167.998H110.552V169.351H106.904V170.752H109.751V172.1H106.904V173.652ZM116.302 175H111.551V167.998H113.055V173.652H116.302V175ZM118.355 169.868C117.919 170.311 117.701 170.856 117.701 171.504C117.701 172.148 117.919 172.692 118.355 173.135C118.792 173.577 119.322 173.799 119.947 173.799C120.576 173.799 121.108 173.577 121.544 173.135C121.98 172.692 122.198 172.148 122.198 171.504C122.198 170.856 121.98 170.311 121.544 169.868C121.108 169.422 120.576 169.199 119.947 169.199C119.322 169.199 118.792 169.422 118.355 169.868ZM117.247 174.082C116.515 173.366 116.148 172.505 116.148 171.499C116.148 170.493 116.515 169.634 117.247 168.921C117.983 168.208 118.883 167.852 119.947 167.852C121.015 167.852 121.915 168.208 122.647 168.921C123.383 169.634 123.751 170.493 123.751 171.499C123.751 172.505 123.383 173.366 122.647 174.082C121.915 174.795 121.015 175.151 119.947 175.151C118.883 175.151 117.983 174.795 117.247 174.082ZM124.652 167.998H127.602C128.321 167.998 128.917 168.224 129.389 168.677C129.864 169.126 130.102 169.684 130.102 170.352C130.102 171.016 129.866 171.574 129.394 172.026C128.922 172.476 128.324 172.7 127.602 172.7H126.156V175H124.652V167.998ZM127.553 169.351H126.156V171.348H127.553C127.852 171.348 128.101 171.252 128.3 171.06C128.502 170.868 128.603 170.632 128.603 170.352C128.603 170.072 128.502 169.836 128.3 169.644C128.101 169.448 127.852 169.351 127.553 169.351ZM134.699 171.05L137.121 167.998H138.449V175H136.95V170.332L134.699 173.198L132.453 170.352V175H130.949V167.998H132.302L134.699 171.05ZM141.25 173.652H145V175H139.746V167.998H144.897V169.351H141.25V170.752H144.097V172.1H141.25V173.652ZM150.647 167.998H152.146V175H150.848L147.4 170.552V175H145.896V167.998H147.2L150.647 172.451V167.998ZM152.745 167.998H158.243V169.351H156.246V175H154.747V169.351H152.745V167.998Z" fill="#00D1FF"/>
<line x1="58" y1="131.5" x2="161" y2="131.5" stroke="#00D1FF"/>
</svg>
