<svg width="221" height="216" viewBox="0 0 221 216" fill="none" xmlns="http://www.w3.org/2000/svg">
<path d="M78.5244 65.0059H92.2695V77.9941C92.1393 78.1569 91.9277 78.401 91.6348 78.7266C91.3581 79.0358 90.7314 79.5811 89.7549 80.3623C88.7946 81.1273 87.7692 81.8109 86.6787 82.4131C85.6045 82.999 84.1885 83.5361 82.4307 84.0244C80.6891 84.5127 78.8906 84.7568 77.0352 84.7568C71.6966 84.7568 67.1882 82.9746 63.5098 79.4102C59.8477 75.8294 58.0166 71.5244 58.0166 66.4951C58.0166 61.4658 59.8477 57.1689 63.5098 53.6045C67.1882 50.04 71.6966 48.2578 77.0352 48.2578C78.8743 48.2578 80.624 48.502 82.2842 48.9902C83.9443 49.4622 85.3034 50.04 86.3613 50.7236C87.4355 51.4072 88.3796 52.0908 89.1934 52.7744C90.0234 53.458 90.6175 54.0358 90.9756 54.5078L91.5371 55.2402L86.7764 60.001C86.6787 59.8708 86.5404 59.6917 86.3613 59.4639C86.1986 59.2197 85.8161 58.8128 85.2139 58.2432C84.6279 57.6735 83.985 57.1771 83.2852 56.7539C82.5853 56.3145 81.6657 55.9157 80.5264 55.5576C79.387 55.1833 78.2233 54.9961 77.0352 54.9961C73.7637 54.9961 71.0293 56.0947 68.832 58.292C66.6348 60.4893 65.5361 63.2236 65.5361 66.4951C65.5361 69.7666 66.6348 72.501 68.832 74.6982C71.0293 76.8955 73.7637 77.9941 77.0352 77.9941C78.5977 77.9941 80.0218 77.7663 81.3076 77.3105C82.5934 76.8385 83.4967 76.3665 84.0176 75.8945L84.7744 75.2598V70.499H78.5244V65.0059ZM114.247 64.249L126.356 48.9902H132.997V84H125.502V60.6602L114.247 74.9912L103.017 60.7578V84H95.4971V48.9902H102.26L114.247 64.249ZM136.981 48.9902H151.728C155.325 48.9902 158.303 50.1214 160.663 52.3838C163.039 54.6299 164.228 57.4212 164.228 60.7578C164.228 64.0781 163.048 66.8695 160.688 69.1318C158.327 71.3779 155.341 72.501 151.728 72.501H144.501V84H136.981V48.9902ZM151.483 55.7529H144.501V65.7383H151.483C152.981 65.7383 154.226 65.2581 155.219 64.2979C156.228 63.3376 156.732 62.1576 156.732 60.7578C156.732 59.3581 156.228 58.1781 155.219 57.2178C154.226 56.2412 152.981 55.7529 151.483 55.7529Z" fill="#333333"/>
<path d="M62.9688 100.898C62.9688 100.43 62.7311 100.052 62.2559 99.7656C61.7871 99.4792 61.2109 99.2415 60.5273 99.0527C59.8503 98.8574 59.1732 98.6296 58.4961 98.3691C57.8255 98.1087 57.2526 97.679 56.7773 97.0801C56.3021 96.4811 56.0645 95.7227 56.0645 94.8047C56.0645 93.6719 56.5169 92.7051 57.4219 91.9043C58.3333 91.1035 59.515 90.7031 60.9668 90.7031C61.5397 90.7031 62.0931 90.7715 62.627 90.9082C63.1608 91.0384 63.597 91.1947 63.9355 91.377C64.2806 91.5527 64.5801 91.735 64.834 91.9238C65.0944 92.1061 65.2799 92.2656 65.3906 92.4023L65.5664 92.5977L63.7695 94.502C63.6914 94.4108 63.5807 94.3001 63.4375 94.1699C63.3008 94.0332 63.0078 93.8542 62.5586 93.6328C62.1094 93.4115 61.6471 93.3008 61.1719 93.3008C60.599 93.3008 60.1367 93.4473 59.7852 93.7402C59.4401 94.0332 59.2676 94.388 59.2676 94.8047C59.2676 95.2734 59.502 95.651 59.9707 95.9375C60.446 96.2174 61.0189 96.4551 61.6895 96.6504C62.3665 96.8457 63.0436 97.0736 63.7207 97.334C64.4043 97.5944 64.9837 98.0241 65.459 98.623C65.9342 99.222 66.1719 99.9805 66.1719 100.898C66.1719 102.194 65.6999 103.252 64.7559 104.072C63.8184 104.893 62.5228 105.303 60.8691 105.303C60.2181 105.303 59.5866 105.221 58.9746 105.059C58.3691 104.902 57.8678 104.714 57.4707 104.492C57.0801 104.271 56.735 104.046 56.4355 103.818C56.1361 103.59 55.9212 103.398 55.791 103.242L55.5664 102.998L57.373 101.201C57.4642 101.305 57.5911 101.442 57.7539 101.611C57.9232 101.774 58.2943 101.995 58.8672 102.275C59.4401 102.555 60.0391 102.695 60.6641 102.695C61.3867 102.695 61.9499 102.526 62.3535 102.188C62.7637 101.849 62.9688 101.419 62.9688 100.898ZM66.0508 90.9961H77.0469V93.7012H73.0527V105H70.0547V93.7012H66.0508V90.9961ZM84.2402 99.1016L82.541 94.502L80.832 99.1016H84.2402ZM85.2363 101.699H79.8359L78.6348 105H75.4316L80.9395 90.9961H84.1328L89.6406 105H86.4375L85.2363 101.699ZM100.145 90.9961H103.143V105H100.545L93.6504 96.1035V105H90.6426V90.9961H93.25L100.145 99.9023V90.9961ZM105.736 90.9961H110.941C112.979 90.9961 114.688 91.6732 116.068 93.0273C117.449 94.3815 118.139 96.0384 118.139 97.998C118.139 99.9577 117.449 101.615 116.068 102.969C114.688 104.323 112.979 105 110.941 105H105.736V90.9961ZM110.941 93.7012H108.744V102.305H110.941C112.1 102.305 113.09 101.888 113.91 101.055C114.73 100.221 115.141 99.2057 115.141 98.0078C115.141 96.8034 114.74 95.7845 113.939 94.9512C113.139 94.1178 112.139 93.7012 110.941 93.7012ZM126.338 99.1016L124.639 94.502L122.93 99.1016H126.338ZM127.334 101.699H121.934L120.732 105H117.529L123.037 90.9961H126.23L131.738 105H128.535L127.334 101.699ZM132.74 105V90.9961H138.941C140.328 90.9961 141.474 91.4421 142.379 92.334C143.29 93.2194 143.746 94.3066 143.746 95.5957C143.746 96.1556 143.658 96.6797 143.482 97.168C143.307 97.6562 143.098 98.0501 142.857 98.3496C142.623 98.6491 142.382 98.9062 142.135 99.1211C141.887 99.3359 141.676 99.4824 141.5 99.5605L141.246 99.6973L144.244 105H141.041L138.346 100.098H135.748V105H132.74ZM140.748 95.5957C140.748 95.0488 140.566 94.5964 140.201 94.2383C139.843 93.8802 139.391 93.7012 138.844 93.7012H135.748V97.4023H138.844C139.391 97.4023 139.843 97.2298 140.201 96.8848C140.566 96.5332 140.748 96.1035 140.748 95.5957ZM144.133 90.9961H155.129V93.7012H151.135V105H148.137V93.7012H144.133V90.9961ZM162.84 100.898C162.84 100.43 162.602 100.052 162.127 99.7656C161.658 99.4792 161.082 99.2415 160.398 99.0527C159.721 98.8574 159.044 98.6296 158.367 98.3691C157.697 98.1087 157.124 97.679 156.648 97.0801C156.173 96.4811 155.936 95.7227 155.936 94.8047C155.936 93.6719 156.388 92.7051 157.293 91.9043C158.204 91.1035 159.386 90.7031 160.838 90.7031C161.411 90.7031 161.964 90.7715 162.498 90.9082C163.032 91.0384 163.468 91.1947 163.807 91.377C164.152 91.5527 164.451 91.735 164.705 91.9238C164.965 92.1061 165.151 92.2656 165.262 92.4023L165.438 92.5977L163.641 94.502C163.562 94.4108 163.452 94.3001 163.309 94.1699C163.172 94.0332 162.879 93.8542 162.43 93.6328C161.98 93.4115 161.518 93.3008 161.043 93.3008C160.47 93.3008 160.008 93.4473 159.656 93.7402C159.311 94.0332 159.139 94.388 159.139 94.8047C159.139 95.2734 159.373 95.651 159.842 95.9375C160.317 96.2174 160.89 96.4551 161.561 96.6504C162.238 96.8457 162.915 97.0736 163.592 97.334C164.275 97.5944 164.855 98.0241 165.33 98.623C165.805 99.222 166.043 99.9805 166.043 100.898C166.043 102.194 165.571 103.252 164.627 104.072C163.689 104.893 162.394 105.303 160.74 105.303C160.089 105.303 159.458 105.221 158.846 105.059C158.24 104.902 157.739 104.714 157.342 104.492C156.951 104.271 156.606 104.046 156.307 103.818C156.007 103.59 155.792 103.398 155.662 103.242L155.438 102.998L157.244 101.201C157.335 101.305 157.462 101.442 157.625 101.611C157.794 101.774 158.165 101.995 158.738 102.275C159.311 102.555 159.91 102.695 160.535 102.695C161.258 102.695 161.821 102.526 162.225 102.188C162.635 101.849 162.84 101.419 162.84 100.898Z" fill="#333333"/>
<path d="M100.399 150.201H103.148V152.799C103.122 152.831 103.08 152.88 103.021 152.945C102.966 153.007 102.841 153.116 102.646 153.272C102.453 153.425 102.248 153.562 102.03 153.683C101.815 153.8 101.532 153.907 101.181 154.005C100.832 154.103 100.473 154.151 100.102 154.151C99.0339 154.151 98.1322 153.795 97.3965 153.082C96.6641 152.366 96.2979 151.505 96.2979 150.499C96.2979 149.493 96.6641 148.634 97.3965 147.921C98.1322 147.208 99.0339 146.852 100.102 146.852C100.469 146.852 100.819 146.9 101.151 146.998C101.483 147.092 101.755 147.208 101.967 147.345C102.182 147.481 102.37 147.618 102.533 147.755C102.699 147.892 102.818 148.007 102.89 148.102L103.002 148.248L102.05 149.2C102.03 149.174 102.003 149.138 101.967 149.093C101.934 149.044 101.858 148.963 101.737 148.849C101.62 148.735 101.492 148.635 101.352 148.551C101.212 148.463 101.028 148.383 100.8 148.312C100.572 148.237 100.339 148.199 100.102 148.199C99.4473 148.199 98.9004 148.419 98.4609 148.858C98.0215 149.298 97.8018 149.845 97.8018 150.499C97.8018 151.153 98.0215 151.7 98.4609 152.14C98.9004 152.579 99.4473 152.799 100.102 152.799C100.414 152.799 100.699 152.753 100.956 152.662C101.213 152.568 101.394 152.473 101.498 152.379L101.649 152.252V151.3H100.399V150.201ZM106.101 148.868C105.664 149.311 105.446 149.856 105.446 150.504C105.446 151.148 105.664 151.692 106.101 152.135C106.537 152.577 107.067 152.799 107.692 152.799C108.321 152.799 108.853 152.577 109.289 152.135C109.725 151.692 109.943 151.148 109.943 150.504C109.943 149.856 109.725 149.311 109.289 148.868C108.853 148.422 108.321 148.199 107.692 148.199C107.067 148.199 106.537 148.422 106.101 148.868ZM104.992 153.082C104.26 152.366 103.894 151.505 103.894 150.499C103.894 149.493 104.26 148.634 104.992 147.921C105.728 147.208 106.628 146.852 107.692 146.852C108.76 146.852 109.66 147.208 110.393 147.921C111.128 148.634 111.496 149.493 111.496 150.499C111.496 151.505 111.128 152.366 110.393 153.082C109.66 153.795 108.76 154.151 107.692 154.151C106.628 154.151 105.728 153.795 104.992 153.082ZM114.204 148.868C113.768 149.311 113.55 149.856 113.55 150.504C113.55 151.148 113.768 151.692 114.204 152.135C114.64 152.577 115.171 152.799 115.796 152.799C116.424 152.799 116.956 152.577 117.393 152.135C117.829 151.692 118.047 151.148 118.047 150.504C118.047 149.856 117.829 149.311 117.393 148.868C116.956 148.422 116.424 148.199 115.796 148.199C115.171 148.199 114.64 148.422 114.204 148.868ZM113.096 153.082C112.363 152.366 111.997 151.505 111.997 150.499C111.997 149.493 112.363 148.634 113.096 147.921C113.831 147.208 114.731 146.852 115.796 146.852C116.864 146.852 117.764 147.208 118.496 147.921C119.232 148.634 119.6 149.493 119.6 150.499C119.6 151.505 119.232 152.366 118.496 153.082C117.764 153.795 116.864 154.151 115.796 154.151C114.731 154.151 113.831 153.795 113.096 153.082ZM120.501 146.998H123.104C124.122 146.998 124.977 147.337 125.667 148.014C126.357 148.691 126.702 149.519 126.702 150.499C126.702 151.479 126.357 152.307 125.667 152.984C124.977 153.661 124.122 154 123.104 154H120.501V146.998ZM123.104 148.351H122.005V152.652H123.104C123.683 152.652 124.178 152.444 124.588 152.027C124.998 151.611 125.203 151.103 125.203 150.504C125.203 149.902 125.003 149.392 124.603 148.976C124.202 148.559 123.702 148.351 123.104 148.351ZM72.6543 162.05L75.0762 158.998H76.4043V166H74.9053V161.332L72.6543 164.198L70.4082 161.352V166H68.9043V158.998H70.2568L72.6543 162.05ZM81.3047 163.051L80.4551 160.751L79.6006 163.051H81.3047ZM81.8027 164.35H79.1025L78.502 166H76.9004L79.6543 158.998H81.251L84.0049 166H82.4033L81.8027 164.35ZM89.2568 158.998H90.7559V166H89.457L86.0098 161.552V166H84.5059V158.998H85.8096L89.2568 163.451V158.998ZM93.957 164.325C94.263 164.641 94.6292 164.799 95.0557 164.799C95.4821 164.799 95.8467 164.641 96.1494 164.325C96.4521 164.009 96.6035 163.617 96.6035 163.148V158.998H98.1025V163.148C98.1025 164.001 97.8128 164.716 97.2334 165.292C96.654 165.865 95.9264 166.151 95.0508 166.151C94.1784 166.151 93.4525 165.865 92.873 165.292C92.2936 164.716 92.0039 164.001 92.0039 163.148V158.998H93.5029V163.148C93.5029 163.614 93.6543 164.006 93.957 164.325ZM99.3555 158.998H104.507V160.351H100.859V161.898H103.706V163.251H100.859V166H99.3555V158.998ZM108.299 163.051L107.449 160.751L106.595 163.051H108.299ZM108.797 164.35H106.097L105.496 166H103.895L106.648 158.998H108.245L110.999 166H109.397L108.797 164.35ZM114.503 158.852C114.871 158.852 115.221 158.9 115.553 158.998C115.885 159.092 116.157 159.208 116.368 159.345C116.583 159.481 116.772 159.618 116.935 159.755C117.101 159.892 117.219 160.007 117.291 160.102L117.403 160.248L116.451 161.2C116.432 161.174 116.404 161.138 116.368 161.093C116.336 161.044 116.259 160.963 116.139 160.849C116.021 160.735 115.893 160.635 115.753 160.551C115.613 160.463 115.429 160.383 115.201 160.312C114.973 160.237 114.741 160.199 114.503 160.199C113.849 160.199 113.302 160.419 112.862 160.858C112.423 161.298 112.203 161.845 112.203 162.499C112.203 163.153 112.423 163.7 112.862 164.14C113.302 164.579 113.849 164.799 114.503 164.799C114.757 164.799 114.999 164.765 115.23 164.696C115.465 164.625 115.659 164.542 115.812 164.447C115.965 164.35 116.1 164.252 116.217 164.154C116.334 164.057 116.419 163.972 116.471 163.9L116.549 163.798L117.452 164.75C117.426 164.789 117.385 164.841 117.33 164.906C117.278 164.968 117.159 165.08 116.974 165.243C116.791 165.403 116.594 165.544 116.383 165.668C116.174 165.788 115.899 165.899 115.558 166C115.219 166.101 114.868 166.151 114.503 166.151C113.435 166.151 112.534 165.795 111.798 165.082C111.065 164.366 110.699 163.505 110.699 162.499C110.699 161.493 111.065 160.634 111.798 159.921C112.534 159.208 113.435 158.852 114.503 158.852ZM117.45 158.998H122.948V160.351H120.951V166H119.452V160.351H117.45V158.998ZM125.451 164.325C125.757 164.641 126.123 164.799 126.55 164.799C126.976 164.799 127.341 164.641 127.644 164.325C127.946 164.009 128.098 163.617 128.098 163.148V158.998H129.597V163.148C129.597 164.001 129.307 164.716 128.728 165.292C128.148 165.865 127.421 166.151 126.545 166.151C125.673 166.151 124.947 165.865 124.367 165.292C123.788 164.716 123.498 164.001 123.498 163.148V158.998H124.997V163.148C124.997 163.614 125.148 164.006 125.451 164.325ZM130.85 166V158.998H133.95C134.644 158.998 135.216 159.221 135.669 159.667C136.125 160.11 136.353 160.653 136.353 161.298C136.353 161.578 136.309 161.84 136.221 162.084C136.133 162.328 136.029 162.525 135.908 162.675C135.791 162.825 135.671 162.953 135.547 163.061C135.423 163.168 135.317 163.241 135.229 163.28L135.103 163.349L136.602 166H135L133.652 163.549H132.354V166H130.85ZM134.854 161.298C134.854 161.024 134.762 160.798 134.58 160.619C134.401 160.44 134.175 160.351 133.901 160.351H132.354V162.201H133.901C134.175 162.201 134.401 162.115 134.58 161.942C134.762 161.767 134.854 161.552 134.854 161.298ZM137.449 166V158.998H138.953V166H137.449ZM145.001 158.998H146.5V166H145.201L141.754 161.552V166H140.25V158.998H141.554L145.001 163.451V158.998ZM151.498 162.201H154.247V164.799C154.221 164.831 154.179 164.88 154.12 164.945C154.065 165.007 153.939 165.116 153.744 165.272C153.552 165.425 153.347 165.562 153.129 165.683C152.914 165.8 152.631 165.907 152.279 166.005C151.931 166.103 151.571 166.151 151.2 166.151C150.132 166.151 149.231 165.795 148.495 165.082C147.763 164.366 147.396 163.505 147.396 162.499C147.396 161.493 147.763 160.634 148.495 159.921C149.231 159.208 150.132 158.852 151.2 158.852C151.568 158.852 151.918 158.9 152.25 158.998C152.582 159.092 152.854 159.208 153.065 159.345C153.28 159.481 153.469 159.618 153.632 159.755C153.798 159.892 153.917 160.007 153.988 160.102L154.101 160.248L153.148 161.2C153.129 161.174 153.101 161.138 153.065 161.093C153.033 161.044 152.956 160.963 152.836 160.849C152.719 160.735 152.59 160.635 152.45 160.551C152.31 160.463 152.126 160.383 151.898 160.312C151.671 160.237 151.438 160.199 151.2 160.199C150.546 160.199 149.999 160.419 149.56 160.858C149.12 161.298 148.9 161.845 148.9 162.499C148.9 163.153 149.12 163.7 149.56 164.14C149.999 164.579 150.546 164.799 151.2 164.799C151.513 164.799 151.798 164.753 152.055 164.662C152.312 164.568 152.493 164.473 152.597 164.379L152.748 164.252V163.3H151.498V162.201ZM88.2744 170.998H91.2236C91.943 170.998 92.5387 171.224 93.0107 171.677C93.486 172.126 93.7236 172.684 93.7236 173.352C93.7236 174.016 93.4876 174.574 93.0156 175.026C92.5436 175.476 91.9463 175.7 91.2236 175.7H89.7783V178H88.2744V170.998ZM91.1748 172.351H89.7783V174.348H91.1748C91.4743 174.348 91.7233 174.252 91.9219 174.06C92.1237 173.868 92.2246 173.632 92.2246 173.352C92.2246 173.072 92.1237 172.836 91.9219 172.644C91.7233 172.448 91.4743 172.351 91.1748 172.351ZM94.5713 178V170.998H97.6719C98.3652 170.998 98.9382 171.221 99.3906 171.667C99.8464 172.11 100.074 172.653 100.074 173.298C100.074 173.578 100.03 173.84 99.9424 174.084C99.8545 174.328 99.7503 174.525 99.6299 174.675C99.5127 174.825 99.3923 174.953 99.2686 175.061C99.1449 175.168 99.0391 175.241 98.9512 175.28L98.8242 175.349L100.323 178H98.7217L97.374 175.549H96.0752V178H94.5713ZM98.5752 173.298C98.5752 173.024 98.484 172.798 98.3018 172.619C98.1227 172.44 97.8965 172.351 97.623 172.351H96.0752V174.201H97.623C97.8965 174.201 98.1227 174.115 98.3018 173.942C98.484 173.767 98.5752 173.552 98.5752 173.298ZM104.774 175.051L103.925 172.751L103.07 175.051H104.774ZM105.272 176.35H102.572L101.972 178H100.37L103.124 170.998H104.721L107.475 178H105.873L105.272 176.35ZM110.979 170.852C111.346 170.852 111.696 170.9 112.028 170.998C112.36 171.092 112.632 171.208 112.844 171.345C113.059 171.481 113.247 171.618 113.41 171.755C113.576 171.892 113.695 172.007 113.767 172.102L113.879 172.248L112.927 173.2C112.907 173.174 112.88 173.138 112.844 173.093C112.811 173.044 112.735 172.963 112.614 172.849C112.497 172.735 112.368 172.635 112.229 172.551C112.089 172.463 111.905 172.383 111.677 172.312C111.449 172.237 111.216 172.199 110.979 172.199C110.324 172.199 109.777 172.419 109.338 172.858C108.898 173.298 108.679 173.845 108.679 174.499C108.679 175.153 108.898 175.7 109.338 176.14C109.777 176.579 110.324 176.799 110.979 176.799C111.232 176.799 111.475 176.765 111.706 176.696C111.94 176.625 112.134 176.542 112.287 176.447C112.44 176.35 112.575 176.252 112.692 176.154C112.81 176.057 112.894 175.972 112.946 175.9L113.024 175.798L113.928 176.75C113.902 176.789 113.861 176.841 113.806 176.906C113.754 176.968 113.635 177.08 113.449 177.243C113.267 177.403 113.07 177.544 112.858 177.668C112.65 177.788 112.375 177.899 112.033 178C111.695 178.101 111.343 178.151 110.979 178.151C109.911 178.151 109.009 177.795 108.273 177.082C107.541 176.366 107.175 175.505 107.175 174.499C107.175 173.493 107.541 172.634 108.273 171.921C109.009 171.208 109.911 170.852 110.979 170.852ZM113.926 170.998H119.424V172.351H117.427V178H115.928V172.351H113.926V170.998ZM120.022 178V170.998H121.526V178H120.022ZM126.227 170.852C126.594 170.852 126.944 170.9 127.276 170.998C127.608 171.092 127.88 171.208 128.092 171.345C128.307 171.481 128.495 171.618 128.658 171.755C128.824 171.892 128.943 172.007 129.015 172.102L129.127 172.248L128.175 173.2C128.155 173.174 128.128 173.138 128.092 173.093C128.059 173.044 127.983 172.963 127.862 172.849C127.745 172.735 127.617 172.635 127.477 172.551C127.337 172.463 127.153 172.383 126.925 172.312C126.697 172.237 126.464 172.199 126.227 172.199C125.572 172.199 125.025 172.419 124.586 172.858C124.146 173.298 123.927 173.845 123.927 174.499C123.927 175.153 124.146 175.7 124.586 176.14C125.025 176.579 125.572 176.799 126.227 176.799C126.48 176.799 126.723 176.765 126.954 176.696C127.188 176.625 127.382 176.542 127.535 176.447C127.688 176.35 127.823 176.252 127.94 176.154C128.058 176.057 128.142 175.972 128.194 175.9L128.272 175.798L129.176 176.75C129.15 176.789 129.109 176.841 129.054 176.906C129.002 176.968 128.883 177.08 128.697 177.243C128.515 177.403 128.318 177.544 128.106 177.668C127.898 177.788 127.623 177.899 127.281 178C126.943 178.101 126.591 178.151 126.227 178.151C125.159 178.151 124.257 177.795 123.521 177.082C122.789 176.366 122.423 175.505 122.423 174.499C122.423 173.493 122.789 172.634 123.521 171.921C124.257 171.208 125.159 170.852 126.227 170.852ZM131.376 176.652H135.126V178H129.872V170.998H135.023V172.351H131.376V173.752H134.223V175.1H131.376V176.652Z" fill="#00D1FF"/>
<path fill-rule="evenodd" clip-rule="evenodd" d="M152.995 11.7696C151.227 15.0017 144.06 15.7945 139.211 14.5748C141.651 12.349 146.866 10.2451 151.379 11.3732L152.995 11.7696L151.562 10.9159C147.598 8.50706 145.432 3.29306 145.28 0.0304912C149.58 2.59176 154.032 8.23264 152.995 11.7696ZM110.515 206.822C112.04 206.822 113.26 208.042 113.26 209.566C113.26 211.091 112.04 212.311 110.515 212.311C108.99 212.311 107.771 211.091 107.771 209.566C107.771 208.042 108.99 206.822 110.515 206.822ZM146.866 8.90345L145.615 7.80576C142.139 4.75663 136.497 4.23828 133.326 5.09204C137.107 8.38509 143.816 10.9769 146.866 8.90345ZM74.3782 8.90345C77.4278 10.9464 84.1367 8.38509 87.9182 5.12253C84.7467 4.26877 79.1355 4.78713 75.6285 7.83625L74.3782 8.90345ZM103.44 209.597C102.586 213.164 95.908 215.848 90.9372 216C92.6754 213.225 97.1583 209.78 101.794 209.658L103.44 209.597C103.501 205.907 97.6767 201.7 92.8889 200.327C93.8953 203.468 97.4022 207.889 101.855 209.139L103.44 209.597ZM93.0414 208.225C91.8521 211.701 84.9296 213.683 79.9589 213.347C81.9716 210.756 86.7898 207.798 91.3946 208.103L93.0414 208.225L91.4861 207.615C87.1863 205.907 84.1367 201.151 83.4659 197.949C88.1011 199.779 93.4683 204.566 93.0414 208.225ZM82.8559 205.785C81.3007 209.139 74.2257 210.42 69.316 209.566C71.6031 207.188 76.6654 204.718 81.2092 205.511L82.8559 205.785C83.6488 202.187 78.8 196.882 74.3477 194.595C74.7137 197.858 77.2448 202.889 81.3617 205.023L82.8559 205.785ZM72.9449 202.34C71.0542 205.511 63.8878 206.06 59.1 204.718C61.6007 202.584 66.9069 200.632 71.3592 201.883L72.9449 202.34L71.5422 201.425C67.6692 198.894 65.6565 193.619 65.6261 190.326C69.8039 193.101 74.1038 198.864 72.9449 202.34ZM63.4304 197.919L62.1496 196.882C58.5511 193.985 57.0568 188.527 57.3618 185.265C61.2347 188.405 64.9247 194.565 63.4304 197.919L61.8751 197.309C57.5753 195.632 52.1166 197.004 49.4025 198.894C54.0683 200.724 61.2652 200.907 63.4304 197.919ZM54.4342 192.583C51.9641 195.296 44.8282 194.412 40.3759 192.156C43.2424 190.57 48.8231 189.717 52.94 191.82L54.4342 192.583L53.2449 191.424C49.9514 188.161 49.0366 182.612 49.6465 179.38C53.2144 182.856 56.264 189.381 54.4342 192.583ZM45.987 186.332C48.1217 183.344 45.7431 176.544 42.5715 172.702C41.6262 175.843 41.9921 181.484 44.9197 185.051L45.987 186.332L44.5842 185.417C40.7113 182.887 35.0697 183.191 32.0506 184.472C36.259 187.216 43.2729 188.802 45.987 186.332ZM38.2412 179.289C35.2831 181.453 28.4522 179.167 24.5488 176.056C27.6898 175.081 33.3314 175.355 36.9299 178.252L38.2412 179.289C40.6808 176.514 39.0036 169.531 36.2285 165.385C34.9782 168.434 34.7647 174.044 37.3263 177.916L38.2412 179.289ZM31.2273 171.483C28.0557 173.343 21.4992 170.385 17.9313 166.879C21.1638 166.208 26.714 167.062 30.0379 170.324L31.2273 171.483C33.9109 168.983 32.9655 161.848 30.6174 157.426C29.0621 160.323 28.2692 165.903 30.4649 169.989L31.2273 171.483ZM25.0367 163.037C27.9643 160.811 27.7203 153.645 25.8296 149.011C23.9999 151.724 22.6581 157.213 24.3963 161.512L25.0367 163.037L23.9694 161.756C21.0113 158.189 15.5526 156.786 12.2896 157.121C15.4917 160.933 21.7127 164.561 25.0367 163.037ZM19.7305 153.981C16.254 155.17 10.4294 150.962 7.65434 146.815C10.9478 146.815 16.2235 148.767 18.8156 152.609L19.7305 153.981C22.8715 152.06 23.3595 144.894 21.9567 140.107C19.8525 142.638 17.9618 147.944 19.2731 152.395L19.7305 153.981ZM15.3697 144.437L15.0647 142.791C14.2108 138.247 16.62 133.155 18.9681 130.838C19.883 135.778 18.6937 142.852 15.3697 144.437L14.5768 142.973C12.4116 138.888 7.31889 136.418 4.05589 136.082C6.43452 140.504 11.8017 145.291 15.3697 144.437ZM11.9847 134.527C8.32524 134.985 3.47647 129.71 1.58576 125.075C4.81827 125.746 9.60604 128.704 11.3748 132.972L11.9847 134.527C15.4612 133.277 17.3519 126.356 16.9249 121.386C14.3633 123.429 11.4358 128.277 11.8322 132.881L11.9847 134.527ZM9.63654 124.313C5.9466 124.404 1.64675 118.641 0.243963 113.854C3.38499 114.83 7.86781 118.276 9.17911 122.697L9.63654 124.313C13.2045 123.429 15.7966 116.721 15.8881 111.72C13.113 113.519 9.72803 118.032 9.66703 122.636L9.63654 124.313ZM8.29474 113.915L8.47771 112.269C9.02663 107.665 12.8386 103.518 15.7661 102.024C15.1867 106.963 11.9542 113.397 8.29474 113.915L7.98979 112.269C7.13592 107.726 3.01904 103.853 0 102.573C0.945357 107.482 4.6353 113.641 8.29474 113.915ZM8.02028 103.426L8.38623 101.81C9.39258 97.2976 13.6009 93.5472 16.681 92.358C15.5831 97.2366 11.7102 103.274 8.02028 103.426L7.86781 101.78C7.47137 97.1756 3.78143 92.9068 0.884366 91.3213C1.3418 96.2914 4.39133 102.786 8.02028 103.426ZM8.81316 92.9678L9.33158 91.3823C10.7954 86.9915 15.3697 83.6985 18.5412 82.8142C16.9554 87.5709 12.5031 93.1813 8.81316 92.9678L8.84366 91.2908C8.90465 86.6561 5.67214 82.0519 2.95805 80.192C2.89706 85.1926 5.2757 91.9921 8.81316 92.9678ZM10.6429 82.6618L11.3138 81.1372C13.2045 76.8989 18.0838 74.0937 21.3468 73.5449C19.3036 78.0881 14.2718 83.2411 10.6429 82.6618L10.8259 81.0153C11.3443 76.4111 8.5997 71.502 6.09908 69.3676C5.51966 74.3072 7.2274 81.2897 10.6429 82.6618ZM13.5095 72.5692L14.3328 71.1361C16.6505 67.1112 21.7737 64.7939 25.0672 64.5805C22.5971 68.9102 17.0774 73.5144 13.5095 72.5692L13.8754 70.9531C14.8512 66.4404 12.6251 61.2569 10.3379 58.8786C9.27059 63.7572 10.2464 70.8922 13.5095 72.5692ZM17.3824 62.8425L18.3582 61.5009C21.0418 57.7504 26.409 55.9514 29.7025 56.0429C26.7749 60.0983 20.8283 64.1231 17.3824 62.8425L17.9008 61.2569C19.3341 56.8662 17.6263 51.4997 15.5831 48.908C14.0279 53.6341 14.3023 60.83 17.3824 62.8425ZM22.2006 53.5121C19.3341 51.1948 19.7915 44.0294 21.8347 39.4557C23.6034 42.2304 24.7622 47.7493 22.8715 51.9876L22.2006 53.5121L23.2985 52.262C26.348 48.786 31.8677 47.5359 35.1307 47.9932C31.8372 51.7436 25.4941 55.1587 22.2006 53.5121ZM27.9338 44.7612C31.0443 46.7126 37.6923 43.9684 41.3517 40.5534C38.1497 39.7911 32.5386 40.4619 29.1536 43.6025L27.9338 44.7612L28.7571 43.3281C31.0443 39.3032 30.4344 33.6928 28.9706 30.7657C26.531 35.0649 25.3417 42.1694 27.9338 44.7612ZM34.5513 36.5895C32.2031 33.7538 34.0938 26.8018 36.9909 22.7465C38.1497 25.8261 38.1802 31.467 35.4966 35.2174L34.5513 36.5895C37.4483 38.8459 44.3403 36.7724 48.3352 33.7538C45.2246 32.6866 39.583 32.7781 35.8931 35.5833L34.5513 36.5895ZM41.9311 29.1496L43.3644 28.2959C47.3288 25.8871 52.94 26.3444 55.9285 27.747C51.6287 30.3083 44.5842 31.7109 41.9311 29.1496L43.029 27.8995C46.0785 24.4235 46.6274 18.8131 45.7736 15.642C42.4496 19.3924 39.888 26.1005 41.9311 29.1496ZM50.0124 22.5025C52.3911 25.3077 59.5575 24.6369 64.0708 22.5025C61.2347 20.8255 55.6846 19.8193 51.5067 21.8012L50.0124 22.5025L51.2322 21.3439C54.6172 18.2033 55.7151 12.6539 55.1966 9.4218C51.5372 12.8368 48.2742 19.24 50.0124 22.5025ZM58.7341 16.6787L60.2894 16.1299C64.6502 14.5748 70.0784 16.1299 72.701 18.1118C68.0352 19.7583 60.8383 19.6973 58.7341 16.6787L60.0454 15.6725C63.7353 12.8673 65.3821 7.47036 65.1991 4.20779C61.2347 7.22643 57.3618 13.2637 58.7341 16.6787ZM68.0047 11.7696C66.9678 8.23264 71.4202 2.62225 75.6895 0C75.5675 3.29306 73.3719 8.47657 69.4075 10.8854L68.0047 11.7696L69.6209 11.3732C74.1038 10.2756 79.349 12.3794 81.7886 14.5748C76.9398 15.764 69.7734 15.0017 68.0047 11.7696ZM117.56 209.597C118.414 213.164 125.092 215.848 130.063 216C128.325 213.225 123.842 209.78 119.206 209.658L117.56 209.597C117.499 205.907 123.323 201.7 128.142 200.327C127.135 203.468 123.628 207.889 119.176 209.139L117.56 209.597ZM127.959 208.225C129.148 211.701 136.07 213.683 141.041 213.347C139.028 210.756 134.21 207.798 129.605 208.103L127.959 208.225L129.514 207.615C133.814 205.907 136.863 201.151 137.534 197.949C132.899 199.779 127.532 204.566 127.959 208.225ZM138.175 205.785C139.73 209.139 146.805 210.42 151.714 209.566C149.427 207.188 144.365 204.718 139.821 205.511L138.175 205.785C137.382 202.187 142.23 196.882 146.683 194.595C146.317 197.858 143.786 202.889 139.669 205.023L138.175 205.785ZM148.055 202.34C149.915 205.511 157.112 206.06 161.9 204.718C159.399 202.584 154.093 200.632 149.641 201.883L148.055 202.34L149.458 201.425C153.331 198.894 155.343 193.619 155.374 190.326C151.196 193.101 146.927 198.864 148.055 202.34ZM157.57 197.919C159.765 200.876 166.932 200.724 171.597 198.894C168.883 197.004 163.425 195.632 159.125 197.309L157.57 197.919C156.075 194.565 159.765 188.375 163.638 185.234C163.943 188.497 162.449 193.955 158.85 196.852L157.57 197.919ZM166.596 192.583C169.066 195.296 176.202 194.412 180.655 192.156C177.788 190.57 172.207 189.717 168.091 191.82L166.596 192.583L167.786 191.424C171.079 188.161 171.994 182.612 171.384 179.38C167.816 182.856 164.767 189.381 166.596 192.583ZM175.013 186.332C172.878 183.344 175.257 176.544 178.428 172.702C179.374 175.843 179.008 181.484 176.08 185.051L175.013 186.332L176.416 185.417C180.289 182.887 185.93 183.191 188.949 184.472C184.771 187.216 177.758 188.802 175.013 186.332ZM182.759 179.289C185.717 181.453 192.548 179.167 196.451 176.056C193.31 175.081 187.669 175.355 184.07 178.252L182.759 179.289C180.319 176.514 181.996 169.531 184.771 165.385C186.022 168.434 186.235 174.044 183.674 177.916L182.759 179.289ZM189.773 171.483L190.566 170.019C192.731 165.933 191.968 160.353 190.383 157.457C188.035 161.848 187.089 168.983 189.773 171.483L190.962 170.324C194.256 167.092 199.836 166.208 203.069 166.879C199.501 170.385 192.944 173.343 189.773 171.483ZM195.963 163.037C193.036 160.811 193.28 153.645 195.17 149.011C197 151.724 198.342 157.213 196.604 161.512L195.963 163.037L197.031 161.756C199.989 158.189 205.447 156.786 208.71 157.121C205.539 160.933 199.318 164.561 195.963 163.037ZM201.269 153.981C204.746 155.17 210.571 150.962 213.346 146.815C210.052 146.815 204.776 148.767 202.184 152.609L201.269 153.981C198.128 152.06 197.641 144.894 199.043 140.107C201.147 142.638 203.038 147.944 201.727 152.395L201.269 153.981ZM205.63 144.437L205.935 142.791C206.789 138.247 204.38 133.155 202.032 130.838C201.117 135.778 202.306 142.852 205.63 144.437L206.423 142.973C208.588 138.888 213.681 136.418 216.944 136.082C214.596 140.504 209.229 145.291 205.63 144.437ZM209.015 134.527C212.675 134.985 217.524 129.71 219.414 125.075C216.182 125.746 211.394 128.704 209.625 132.972L209.015 134.527C205.539 133.277 203.648 126.356 204.075 121.386C206.637 123.429 209.564 128.277 209.168 132.881L209.015 134.527ZM211.363 124.313L211.333 122.636C211.241 118.001 207.887 113.488 205.112 111.72C205.203 116.721 207.795 123.429 211.363 124.313L211.851 122.727C213.163 118.276 217.646 114.861 220.787 113.885C219.353 118.641 215.053 124.404 211.363 124.313ZM212.705 113.915L212.522 112.269C211.973 107.665 208.161 103.518 205.234 102.024C205.813 106.963 209.046 113.397 212.705 113.915L213.01 112.269C213.864 107.726 217.981 103.853 221 102.573C220.085 107.482 216.365 113.641 212.705 113.915ZM212.98 103.426L212.614 101.81C211.607 97.2976 207.399 93.5472 204.319 92.358C205.417 97.2366 209.29 103.274 212.98 103.426L213.132 101.78C213.529 97.1756 217.219 92.9068 220.116 91.3213C219.658 96.2914 216.609 102.786 212.98 103.426ZM212.187 92.9678C215.724 91.9616 218.103 85.1926 218.042 80.192C215.328 82.0519 212.095 86.6866 212.156 91.2908L212.187 92.9678C208.497 93.1813 204.045 87.5709 202.459 82.8142C205.63 83.6985 210.205 86.9915 211.668 91.3823L212.187 92.9678ZM210.357 82.6618C213.773 81.3202 215.48 74.3377 214.901 69.3676C212.4 71.502 209.625 76.4111 210.174 81.0153L210.357 82.6618C206.728 83.2411 201.696 78.0881 199.653 73.5449C202.886 74.0937 207.765 76.9294 209.656 81.1372L210.357 82.6618ZM207.491 72.5692C210.754 70.8922 211.729 63.7572 210.662 58.8786C208.375 61.2569 206.149 66.4099 207.125 70.9531L207.491 72.5692C203.923 73.5144 198.433 68.9102 195.933 64.5805C199.226 64.7939 204.35 67.1112 206.667 71.1361L207.491 72.5692ZM203.618 62.8425C206.698 60.83 206.942 53.6341 205.386 48.908C203.343 51.4997 201.635 56.8662 203.069 61.2569L203.618 62.8425C200.172 64.1536 194.225 60.0983 191.298 56.0429C194.591 55.9514 199.928 57.7199 202.642 61.5009L203.618 62.8425ZM198.799 53.5121C201.666 51.1948 201.208 44.0294 199.165 39.4557C197.397 42.2304 196.238 47.7493 198.128 51.9876L198.799 53.5121L197.702 52.262C194.652 48.786 189.132 47.5359 185.869 47.9932C189.193 51.7436 195.506 55.1587 198.799 53.5121ZM193.066 44.7612C189.956 46.7126 183.308 43.9684 179.648 40.5534C182.85 39.7911 188.461 40.4619 191.846 43.6025L193.066 44.7612L192.243 43.3281C189.956 39.3032 190.566 33.6928 192.029 30.7657C194.5 35.0649 195.689 42.1694 193.066 44.7612ZM186.479 36.5895C188.827 33.7538 186.937 26.8018 184.04 22.7465C182.881 25.8261 182.85 31.467 185.534 35.2174L186.479 36.5895C183.582 38.8459 176.69 36.7724 172.695 33.7538C175.806 32.6866 181.447 32.7781 185.137 35.5833L186.479 36.5895ZM179.069 29.1496L177.636 28.2959C173.671 25.8871 168.06 26.3444 165.071 27.747C169.371 30.3083 176.416 31.7109 179.069 29.1496L177.971 27.8995C174.921 24.4235 174.373 18.8131 175.226 15.642C178.55 19.3924 181.143 26.1005 179.069 29.1496ZM170.988 22.5025C168.609 25.3077 161.443 24.6369 156.929 22.5025C159.765 20.8255 165.315 19.8193 169.493 21.8012L170.988 22.5025L169.768 21.3439C166.383 18.2033 165.285 12.6539 165.803 9.4218C169.463 12.8368 172.726 19.24 170.988 22.5025ZM162.266 16.6787L160.711 16.0994C156.35 14.5443 150.922 16.0994 148.299 18.0813C152.995 19.7583 160.162 19.6973 162.266 16.6787L160.955 15.6725C157.265 12.8673 155.618 7.47036 155.801 4.20779C159.765 7.22643 163.669 13.2637 162.266 16.6787Z" fill="#00D1FF"/>
<path d="M80.1429 123L81.5938 126.146L85.034 126.554L82.4906 128.906L83.1658 132.304L80.1429 130.611L77.12 132.304L77.7951 128.906L75.2517 126.554L78.6919 126.146L80.1429 123Z" fill="#00D1FF"/>
<path d="M95.5714 123L97.0224 126.146L100.463 126.554L97.9192 128.906L98.5943 132.304L95.5714 130.611L92.5486 132.304L93.2237 128.906L90.6803 126.554L94.1205 126.146L95.5714 123Z" fill="#00D1FF"/>
<path d="M111 123L112.451 126.146L115.891 126.554L113.348 128.906L114.023 132.304L111 130.611L107.977 132.304L108.652 128.906L106.109 126.554L109.549 126.146L111 123Z" fill="#00D1FF"/>
<path d="M126.429 123L127.88 126.146L131.32 126.554L128.776 128.906L129.452 132.304L126.429 130.611L123.406 132.304L124.081 128.906L121.537 126.554L124.978 126.146L126.429 123Z" fill="#00D1FF"/>
<path d="M141.857 123L143.308 126.146L146.748 126.554L144.205 128.906L144.88 132.304L141.857 130.611L138.834 132.304L139.509 128.906L136.966 126.554L140.406 126.146L141.857 123Z" fill="#00D1FF"/>
</svg>
