<svg width="221" height="216" viewBox="0 0 221 216" fill="none" xmlns="http://www.w3.org/2000/svg">
<path d="M77.2451 48.9902H83.4951V84H76V58.5117H69.9941V53.751C71.0684 53.6208 72.0531 53.3685 72.9482 52.9941C73.8434 52.6035 74.5352 52.1885 75.0234 51.749C75.528 51.3096 75.9512 50.8864 76.293 50.4795C76.651 50.0563 76.9033 49.6982 77.0498 49.4053L77.2451 48.9902ZM96.9873 57.999C95.5062 60.001 94.7656 62.833 94.7656 66.4951C94.7656 70.1572 95.5062 72.9893 96.9873 74.9912C98.4684 76.9932 100.226 77.9941 102.261 77.9941C104.295 77.9941 106.053 76.9932 107.534 74.9912C109.015 72.9893 109.756 70.1572 109.756 66.4951C109.756 62.833 109.015 60.001 107.534 57.999C106.053 55.9971 104.295 54.9961 102.261 54.9961C100.226 54.9961 98.4684 55.9971 96.9873 57.999ZM112.881 53.2871C115.794 56.6237 117.251 61.0264 117.251 66.4951C117.251 71.9639 115.794 76.3747 112.881 79.7275C109.967 83.0804 106.427 84.7568 102.261 84.7568C98.0941 84.7568 94.554 83.0804 91.6406 79.7275C88.7272 76.3747 87.2705 71.9639 87.2705 66.4951C87.2705 61.0264 88.7272 56.6237 91.6406 53.2871C94.554 49.9342 98.0941 48.2578 102.261 48.2578C106.427 48.2578 109.967 49.9342 112.881 53.2871ZM128.985 57.999C127.504 60.001 126.764 62.833 126.764 66.4951C126.764 70.1572 127.504 72.9893 128.985 74.9912C130.466 76.9932 132.224 77.9941 134.259 77.9941C136.293 77.9941 138.051 76.9932 139.532 74.9912C141.013 72.9893 141.754 70.1572 141.754 66.4951C141.754 62.833 141.013 60.001 139.532 57.999C138.051 55.9971 136.293 54.9961 134.259 54.9961C132.224 54.9961 130.466 55.9971 128.985 57.999ZM144.879 53.2871C147.792 56.6237 149.249 61.0264 149.249 66.4951C149.249 71.9639 147.792 76.3747 144.879 79.7275C141.965 83.0804 138.425 84.7568 134.259 84.7568C130.092 84.7568 126.552 83.0804 123.639 79.7275C120.725 76.3747 119.269 71.9639 119.269 66.4951C119.269 61.0264 120.725 56.6237 123.639 53.2871C126.552 49.9342 130.092 48.2578 134.259 48.2578C138.425 48.2578 141.965 49.9342 144.879 53.2871Z" fill="#333333"/>
<path d="M153.18 51.1438C152.827 51.5095 152.65 51.9688 152.65 52.5217C152.65 53.0658 152.827 53.5206 153.18 53.8863C153.534 54.252 153.973 54.4348 154.499 54.4348C155.033 54.4348 155.477 54.252 155.831 53.8863C156.184 53.5206 156.361 53.0658 156.361 52.5217C156.361 51.9688 156.184 51.5095 155.831 51.1438C155.477 50.7781 155.033 50.5953 154.499 50.5953C153.973 50.5953 153.534 50.7781 153.18 51.1438ZM152.521 67.5853L164.169 48.4013H167.479L155.831 67.5853H152.521ZM157.679 49.3645C158.567 50.2742 159.011 51.3266 159.011 52.5217C159.011 53.7079 158.567 54.7603 157.679 55.6789C156.8 56.5886 155.74 57.0435 154.499 57.0435C153.267 57.0435 152.206 56.5886 151.319 55.6789C150.44 54.7603 150 53.7079 150 52.5217C150 51.3266 150.44 50.2742 151.319 49.3645C152.206 48.4548 153.267 48 154.499 48C155.74 48 156.8 48.4548 157.679 49.3645ZM166.82 64.8428C167.173 64.4771 167.35 64.0223 167.35 63.4783C167.35 62.9253 167.173 62.466 166.82 62.1003C166.466 61.7347 166.022 61.5518 165.488 61.5518C164.962 61.5518 164.523 61.7347 164.169 62.1003C163.816 62.466 163.639 62.9253 163.639 63.4783C163.639 64.0223 163.816 64.4771 164.169 64.8428C164.523 65.2085 164.962 65.3913 165.488 65.3913C166.022 65.3913 166.466 65.2085 166.82 64.8428ZM162.308 66.6355C161.429 65.7168 160.989 64.6644 160.989 63.4783C160.989 62.2921 161.429 61.2441 162.308 60.3344C163.195 59.4158 164.256 58.9565 165.488 58.9565C166.729 58.9565 167.789 59.4158 168.668 60.3344C169.556 61.2441 170 62.2921 170 63.4783C170 64.6644 169.556 65.7168 168.668 66.6355C167.789 67.5452 166.729 68 165.488 68C164.256 68 163.195 67.5452 162.308 66.6355Z" fill="#333333"/>
<path d="M71.0371 106.164C69.5723 104.732 68.8398 103.01 68.8398 100.998C68.8398 98.9863 69.5723 97.2676 71.0371 95.8418C72.5085 94.416 74.3086 93.7031 76.4375 93.7031C78.5729 93.7031 80.373 94.416 81.8379 95.8418C83.3092 97.2676 84.0449 98.9863 84.0449 100.998C84.0449 101.838 83.9115 102.632 83.6445 103.381C83.3776 104.13 83.0553 104.735 82.6777 105.197C82.3066 105.653 81.9323 106.053 81.5547 106.398C81.1771 106.743 80.8548 106.991 80.5879 107.141L80.1875 107.355C80.2135 107.395 80.2526 107.45 80.3047 107.521C80.3568 107.587 80.4837 107.701 80.6855 107.863C80.8874 108.02 81.1087 108.16 81.3496 108.283C81.597 108.413 81.9323 108.531 82.3555 108.635C82.7852 108.745 83.2474 108.801 83.7422 108.801H84.1426V111.203H83.5469C82.7461 111.203 81.9909 111.102 81.2812 110.9C80.5781 110.699 80.0052 110.451 79.5625 110.158C79.1263 109.865 78.7389 109.572 78.4004 109.279C78.0684 108.986 77.8307 108.739 77.6875 108.537L77.4824 108.244C77.1895 108.283 76.8444 108.303 76.4473 108.303C74.3118 108.303 72.5085 107.59 71.0371 106.164ZM73.2539 97.7363C72.3815 98.6217 71.9453 99.7122 71.9453 101.008C71.9453 102.297 72.3815 103.384 73.2539 104.27C74.1263 105.155 75.1875 105.598 76.4375 105.598C77.694 105.598 78.7585 105.155 79.6309 104.27C80.5033 103.384 80.9395 102.297 80.9395 101.008C80.9395 99.7122 80.5033 98.6217 79.6309 97.7363C78.7585 96.8444 77.694 96.3984 76.4375 96.3984C75.1875 96.3984 74.1263 96.8444 73.2539 97.7363ZM89.7539 104.65C90.3659 105.282 91.0983 105.598 91.9512 105.598C92.804 105.598 93.5332 105.282 94.1387 104.65C94.7441 104.019 95.0469 103.234 95.0469 102.297V93.9961H98.0449V102.297C98.0449 104.003 97.4655 105.432 96.3066 106.584C95.1478 107.73 93.6927 108.303 91.9414 108.303C90.1966 108.303 88.7448 107.73 87.5859 106.584C86.4271 105.432 85.8477 104.003 85.8477 102.297V93.9961H88.8457V102.297C88.8457 103.228 89.1484 104.012 89.7539 104.65ZM106.957 102.102L105.258 97.502L103.549 102.102H106.957ZM107.953 104.699H102.553L101.352 108H98.1484L103.656 93.9961H106.85L112.357 108H109.154L107.953 104.699ZM122.861 108H113.359V93.9961H116.367V105.305H122.861V108ZM124.156 108V93.9961H127.164V108H124.156ZM128.361 93.9961H139.357V96.7012H135.363V108H132.365V96.7012H128.361V93.9961ZM142.156 93.9961L145.457 100.002L148.758 93.9961H151.961L146.961 103V108H143.953V103L138.953 93.9961H142.156ZM70.1094 113.703C70.8451 113.703 71.5449 113.801 72.209 113.996C72.873 114.185 73.4167 114.416 73.8398 114.689C74.2695 114.963 74.6471 115.236 74.9727 115.51C75.3047 115.783 75.5423 116.014 75.6855 116.203L75.9102 116.496L74.0059 118.4C73.9668 118.348 73.9115 118.277 73.8398 118.186C73.7747 118.088 73.6217 117.925 73.3809 117.697C73.1465 117.469 72.8893 117.271 72.6094 117.102C72.3294 116.926 71.9616 116.766 71.5059 116.623C71.0501 116.473 70.5846 116.398 70.1094 116.398C68.8008 116.398 67.707 116.838 66.8281 117.717C65.9492 118.596 65.5098 119.689 65.5098 120.998C65.5098 122.307 65.9492 123.4 66.8281 124.279C67.707 125.158 68.8008 125.598 70.1094 125.598C70.6172 125.598 71.1022 125.529 71.5645 125.393C72.0332 125.249 72.4206 125.083 72.7266 124.895C73.0326 124.699 73.3027 124.504 73.5371 124.309C73.7715 124.113 73.9408 123.944 74.0449 123.801L74.2012 123.596L76.0078 125.5C75.9557 125.578 75.8743 125.682 75.7637 125.812C75.6595 125.936 75.4219 126.161 75.0508 126.486C74.6862 126.805 74.2923 127.089 73.8691 127.336C73.4525 127.577 72.9023 127.798 72.2188 128C71.5417 128.202 70.8385 128.303 70.1094 128.303C67.974 128.303 66.1706 127.59 64.6992 126.164C63.2344 124.732 62.502 123.01 62.502 120.998C62.502 118.986 63.2344 117.268 64.6992 115.842C66.1706 114.416 67.974 113.703 70.1094 113.703ZM80.6035 117.736C79.7311 118.622 79.2949 119.712 79.2949 121.008C79.2949 122.297 79.7311 123.384 80.6035 124.27C81.4759 125.155 82.5371 125.598 83.7871 125.598C85.0436 125.598 86.1081 125.155 86.9805 124.27C87.8529 123.384 88.2891 122.297 88.2891 121.008C88.2891 119.712 87.8529 118.622 86.9805 117.736C86.1081 116.844 85.0436 116.398 83.7871 116.398C82.5371 116.398 81.4759 116.844 80.6035 117.736ZM78.3867 126.164C76.9219 124.732 76.1895 123.01 76.1895 120.998C76.1895 118.986 76.9219 117.268 78.3867 115.842C79.8581 114.416 81.6582 113.703 83.7871 113.703C85.9225 113.703 87.7227 114.416 89.1875 115.842C90.6589 117.268 91.3945 118.986 91.3945 120.998C91.3945 123.01 90.6589 124.732 89.1875 126.164C87.7227 127.59 85.9225 128.303 83.7871 128.303C81.6582 128.303 79.8581 127.59 78.3867 126.164ZM102.699 113.996H105.697V128H103.1L96.2051 119.104V128H93.1973V113.996H95.8047L102.699 122.902V113.996ZM106.895 113.996H117.891V116.701H113.896V128H110.898V116.701H106.895V113.996ZM119.088 128V113.996H125.289C126.676 113.996 127.822 114.442 128.727 115.334C129.638 116.219 130.094 117.307 130.094 118.596C130.094 119.156 130.006 119.68 129.83 120.168C129.654 120.656 129.446 121.05 129.205 121.35C128.971 121.649 128.73 121.906 128.482 122.121C128.235 122.336 128.023 122.482 127.848 122.561L127.594 122.697L130.592 128H127.389L124.693 123.098H122.096V128H119.088ZM127.096 118.596C127.096 118.049 126.913 117.596 126.549 117.238C126.191 116.88 125.738 116.701 125.191 116.701H122.096V120.402H125.191C125.738 120.402 126.191 120.23 126.549 119.885C126.913 119.533 127.096 119.104 127.096 118.596ZM135.9 117.736C135.028 118.622 134.592 119.712 134.592 121.008C134.592 122.297 135.028 123.384 135.9 124.27C136.773 125.155 137.834 125.598 139.084 125.598C140.34 125.598 141.405 125.155 142.277 124.27C143.15 123.384 143.586 122.297 143.586 121.008C143.586 119.712 143.15 118.622 142.277 117.736C141.405 116.844 140.34 116.398 139.084 116.398C137.834 116.398 136.773 116.844 135.9 117.736ZM133.684 126.164C132.219 124.732 131.486 123.01 131.486 120.998C131.486 118.986 132.219 117.268 133.684 115.842C135.155 114.416 136.955 113.703 139.084 113.703C141.219 113.703 143.02 114.416 144.484 115.842C145.956 117.268 146.691 118.986 146.691 120.998C146.691 123.01 145.956 124.732 144.484 126.164C143.02 127.59 141.219 128.303 139.084 128.303C136.955 128.303 135.155 127.59 133.684 126.164ZM157.996 128H148.494V113.996H151.502V125.305H157.996V128Z" fill="#333333"/>
<path fill-rule="evenodd" clip-rule="evenodd" d="M152.995 11.7696C151.227 15.0017 144.06 15.7945 139.211 14.5748C141.651 12.349 146.866 10.2451 151.379 11.3732L152.995 11.7696L151.562 10.9159C147.598 8.50706 145.432 3.29306 145.28 0.0304912C149.58 2.59176 154.032 8.23264 152.995 11.7696ZM110.515 206.822C112.04 206.822 113.26 208.042 113.26 209.566C113.26 211.091 112.04 212.311 110.515 212.311C108.99 212.311 107.771 211.091 107.771 209.566C107.771 208.042 108.99 206.822 110.515 206.822ZM146.866 8.90345L145.615 7.80576C142.139 4.75663 136.497 4.23828 133.326 5.09204C137.107 8.38509 143.816 10.9769 146.866 8.90345ZM74.3782 8.90345C77.4278 10.9464 84.1367 8.38509 87.9182 5.12253C84.7467 4.26877 79.1355 4.78713 75.6285 7.83625L74.3782 8.90345ZM103.44 209.597C102.586 213.164 95.908 215.848 90.9372 216C92.6754 213.225 97.1583 209.78 101.794 209.658L103.44 209.597C103.501 205.907 97.6767 201.7 92.8889 200.327C93.8953 203.468 97.4022 207.889 101.855 209.139L103.44 209.597ZM93.0414 208.225C91.8521 211.701 84.9296 213.683 79.9589 213.347C81.9716 210.756 86.7898 207.798 91.3946 208.103L93.0414 208.225L91.4861 207.615C87.1863 205.907 84.1367 201.151 83.4659 197.949C88.1011 199.779 93.4683 204.566 93.0414 208.225ZM82.8559 205.785C81.3007 209.139 74.2257 210.42 69.316 209.566C71.6031 207.188 76.6654 204.718 81.2092 205.511L82.8559 205.785C83.6488 202.187 78.8 196.882 74.3477 194.595C74.7137 197.858 77.2448 202.889 81.3617 205.023L82.8559 205.785ZM72.9449 202.34C71.0542 205.511 63.8878 206.06 59.1 204.718C61.6007 202.584 66.9069 200.632 71.3592 201.883L72.9449 202.34L71.5422 201.425C67.6692 198.894 65.6565 193.619 65.6261 190.326C69.8039 193.101 74.1038 198.864 72.9449 202.34ZM63.4304 197.919L62.1496 196.882C58.5511 193.985 57.0568 188.527 57.3618 185.265C61.2347 188.405 64.9247 194.565 63.4304 197.919L61.8751 197.309C57.5753 195.632 52.1166 197.004 49.4025 198.894C54.0683 200.724 61.2652 200.907 63.4304 197.919ZM54.4342 192.583C51.9641 195.296 44.8282 194.412 40.3759 192.156C43.2424 190.57 48.8231 189.717 52.94 191.82L54.4342 192.583L53.2449 191.424C49.9514 188.161 49.0366 182.612 49.6465 179.38C53.2144 182.856 56.264 189.381 54.4342 192.583ZM45.987 186.332C48.1217 183.344 45.7431 176.544 42.5715 172.702C41.6262 175.843 41.9921 181.484 44.9197 185.051L45.987 186.332L44.5842 185.417C40.7113 182.887 35.0697 183.191 32.0506 184.472C36.259 187.216 43.2729 188.802 45.987 186.332ZM38.2412 179.289C35.2831 181.453 28.4522 179.167 24.5488 176.056C27.6898 175.081 33.3314 175.355 36.9299 178.252L38.2412 179.289C40.6808 176.514 39.0036 169.531 36.2285 165.385C34.9782 168.434 34.7647 174.044 37.3263 177.916L38.2412 179.289ZM31.2273 171.483C28.0557 173.343 21.4992 170.385 17.9313 166.879C21.1638 166.208 26.714 167.062 30.0379 170.324L31.2273 171.483C33.9109 168.983 32.9655 161.848 30.6174 157.426C29.0621 160.323 28.2692 165.903 30.4649 169.989L31.2273 171.483ZM25.0367 163.037C27.9643 160.811 27.7203 153.645 25.8296 149.011C23.9999 151.724 22.6581 157.213 24.3963 161.512L25.0367 163.037L23.9694 161.756C21.0113 158.189 15.5526 156.786 12.2896 157.121C15.4917 160.933 21.7127 164.561 25.0367 163.037ZM19.7305 153.981C16.254 155.17 10.4294 150.962 7.65434 146.815C10.9478 146.815 16.2235 148.767 18.8156 152.609L19.7305 153.981C22.8715 152.06 23.3595 144.894 21.9567 140.107C19.8525 142.638 17.9618 147.944 19.2731 152.395L19.7305 153.981ZM15.3697 144.437L15.0647 142.791C14.2108 138.247 16.62 133.155 18.9681 130.838C19.883 135.778 18.6937 142.852 15.3697 144.437L14.5768 142.973C12.4116 138.888 7.31889 136.418 4.05589 136.082C6.43452 140.504 11.8017 145.291 15.3697 144.437ZM11.9847 134.527C8.32524 134.985 3.47647 129.71 1.58576 125.075C4.81827 125.746 9.60604 128.704 11.3748 132.972L11.9847 134.527C15.4612 133.277 17.3519 126.356 16.9249 121.386C14.3633 123.429 11.4358 128.277 11.8322 132.881L11.9847 134.527ZM9.63654 124.313C5.9466 124.404 1.64675 118.641 0.243963 113.854C3.38499 114.83 7.86781 118.276 9.17911 122.697L9.63654 124.313C13.2045 123.429 15.7966 116.721 15.8881 111.72C13.113 113.519 9.72803 118.032 9.66703 122.636L9.63654 124.313ZM8.29474 113.915L8.47771 112.269C9.02663 107.665 12.8386 103.518 15.7661 102.024C15.1867 106.963 11.9542 113.397 8.29474 113.915L7.98979 112.269C7.13592 107.726 3.01904 103.853 0 102.573C0.945357 107.482 4.6353 113.641 8.29474 113.915ZM8.02028 103.426L8.38623 101.81C9.39258 97.2976 13.6009 93.5472 16.681 92.358C15.5831 97.2366 11.7102 103.274 8.02028 103.426L7.86781 101.78C7.47137 97.1756 3.78143 92.9068 0.884366 91.3213C1.3418 96.2914 4.39133 102.786 8.02028 103.426ZM8.81316 92.9678L9.33158 91.3823C10.7954 86.9915 15.3697 83.6985 18.5412 82.8142C16.9554 87.5709 12.5031 93.1813 8.81316 92.9678L8.84366 91.2908C8.90465 86.6561 5.67214 82.0519 2.95805 80.192C2.89706 85.1926 5.2757 91.9921 8.81316 92.9678ZM10.6429 82.6618L11.3138 81.1372C13.2045 76.8989 18.0838 74.0937 21.3468 73.5449C19.3036 78.0881 14.2718 83.2411 10.6429 82.6618L10.8259 81.0153C11.3443 76.4111 8.5997 71.502 6.09908 69.3676C5.51966 74.3072 7.2274 81.2897 10.6429 82.6618ZM13.5095 72.5692L14.3328 71.1361C16.6505 67.1112 21.7737 64.7939 25.0672 64.5805C22.5971 68.9102 17.0774 73.5144 13.5095 72.5692L13.8754 70.9531C14.8512 66.4404 12.6251 61.2569 10.3379 58.8786C9.27059 63.7572 10.2464 70.8922 13.5095 72.5692ZM17.3824 62.8425L18.3582 61.5009C21.0418 57.7504 26.409 55.9514 29.7025 56.0429C26.7749 60.0983 20.8283 64.1231 17.3824 62.8425L17.9008 61.2569C19.3341 56.8662 17.6263 51.4997 15.5831 48.908C14.0279 53.6341 14.3023 60.83 17.3824 62.8425ZM22.2006 53.5121C19.3341 51.1948 19.7915 44.0294 21.8347 39.4557C23.6034 42.2304 24.7622 47.7493 22.8715 51.9876L22.2006 53.5121L23.2985 52.262C26.348 48.786 31.8677 47.5359 35.1307 47.9932C31.8372 51.7436 25.4941 55.1587 22.2006 53.5121ZM27.9338 44.7612C31.0443 46.7126 37.6923 43.9684 41.3517 40.5534C38.1497 39.7911 32.5386 40.4619 29.1536 43.6025L27.9338 44.7612L28.7571 43.3281C31.0443 39.3032 30.4344 33.6928 28.9706 30.7657C26.531 35.0649 25.3417 42.1694 27.9338 44.7612ZM34.5513 36.5895C32.2031 33.7538 34.0938 26.8018 36.9909 22.7465C38.1497 25.8261 38.1802 31.467 35.4966 35.2174L34.5513 36.5895C37.4483 38.8459 44.3403 36.7724 48.3352 33.7538C45.2246 32.6866 39.583 32.7781 35.8931 35.5833L34.5513 36.5895ZM41.9311 29.1496L43.3644 28.2959C47.3288 25.8871 52.94 26.3444 55.9285 27.747C51.6287 30.3083 44.5842 31.7109 41.9311 29.1496L43.029 27.8995C46.0785 24.4235 46.6274 18.8131 45.7736 15.642C42.4496 19.3924 39.888 26.1005 41.9311 29.1496ZM50.0124 22.5025C52.3911 25.3077 59.5575 24.6369 64.0708 22.5025C61.2347 20.8255 55.6846 19.8193 51.5067 21.8012L50.0124 22.5025L51.2322 21.3439C54.6172 18.2033 55.7151 12.6539 55.1966 9.4218C51.5372 12.8368 48.2742 19.24 50.0124 22.5025ZM58.7341 16.6787L60.2894 16.1299C64.6502 14.5748 70.0784 16.1299 72.701 18.1118C68.0352 19.7583 60.8383 19.6973 58.7341 16.6787L60.0454 15.6725C63.7353 12.8673 65.3821 7.47036 65.1991 4.20779C61.2347 7.22643 57.3618 13.2637 58.7341 16.6787ZM68.0047 11.7696C66.9678 8.23264 71.4202 2.62225 75.6895 0C75.5675 3.29306 73.3719 8.47657 69.4075 10.8854L68.0047 11.7696L69.6209 11.3732C74.1038 10.2756 79.349 12.3794 81.7886 14.5748C76.9398 15.764 69.7734 15.0017 68.0047 11.7696ZM117.56 209.597C118.414 213.164 125.092 215.848 130.063 216C128.325 213.225 123.842 209.78 119.206 209.658L117.56 209.597C117.499 205.907 123.323 201.7 128.142 200.327C127.135 203.468 123.628 207.889 119.176 209.139L117.56 209.597ZM127.959 208.225C129.148 211.701 136.07 213.683 141.041 213.347C139.028 210.756 134.21 207.798 129.605 208.103L127.959 208.225L129.514 207.615C133.814 205.907 136.863 201.151 137.534 197.949C132.899 199.779 127.532 204.566 127.959 208.225ZM138.175 205.785C139.73 209.139 146.805 210.42 151.714 209.566C149.427 207.188 144.365 204.718 139.821 205.511L138.175 205.785C137.382 202.187 142.23 196.882 146.683 194.595C146.317 197.858 143.786 202.889 139.669 205.023L138.175 205.785ZM148.055 202.34C149.915 205.511 157.112 206.06 161.9 204.718C159.399 202.584 154.093 200.632 149.641 201.883L148.055 202.34L149.458 201.425C153.331 198.894 155.343 193.619 155.374 190.326C151.196 193.101 146.927 198.864 148.055 202.34ZM157.57 197.919C159.765 200.876 166.932 200.724 171.597 198.894C168.883 197.004 163.425 195.632 159.125 197.309L157.57 197.919C156.075 194.565 159.765 188.375 163.638 185.234C163.943 188.497 162.449 193.955 158.85 196.852L157.57 197.919ZM166.596 192.583C169.066 195.296 176.202 194.412 180.655 192.156C177.788 190.57 172.207 189.717 168.091 191.82L166.596 192.583L167.786 191.424C171.079 188.161 171.994 182.612 171.384 179.38C167.816 182.856 164.767 189.381 166.596 192.583ZM175.013 186.332C172.878 183.344 175.257 176.544 178.428 172.702C179.374 175.843 179.008 181.484 176.08 185.051L175.013 186.332L176.416 185.417C180.289 182.887 185.93 183.191 188.949 184.472C184.771 187.216 177.758 188.802 175.013 186.332ZM182.759 179.289C185.717 181.453 192.548 179.167 196.451 176.056C193.31 175.081 187.669 175.355 184.07 178.252L182.759 179.289C180.319 176.514 181.996 169.531 184.771 165.385C186.022 168.434 186.235 174.044 183.674 177.916L182.759 179.289ZM189.773 171.483L190.566 170.019C192.731 165.933 191.968 160.353 190.383 157.457C188.035 161.848 187.089 168.983 189.773 171.483L190.962 170.324C194.256 167.092 199.836 166.208 203.069 166.879C199.501 170.385 192.944 173.343 189.773 171.483ZM195.963 163.037C193.036 160.811 193.28 153.645 195.17 149.011C197 151.724 198.342 157.213 196.604 161.512L195.963 163.037L197.031 161.756C199.989 158.189 205.447 156.786 208.71 157.121C205.539 160.933 199.318 164.561 195.963 163.037ZM201.269 153.981C204.746 155.17 210.571 150.962 213.346 146.815C210.052 146.815 204.776 148.767 202.184 152.609L201.269 153.981C198.128 152.06 197.641 144.894 199.043 140.107C201.147 142.638 203.038 147.944 201.727 152.395L201.269 153.981ZM205.63 144.437L205.935 142.791C206.789 138.247 204.38 133.155 202.032 130.838C201.117 135.778 202.306 142.852 205.63 144.437L206.423 142.973C208.588 138.888 213.681 136.418 216.944 136.082C214.596 140.504 209.229 145.291 205.63 144.437ZM209.015 134.527C212.675 134.985 217.524 129.71 219.414 125.075C216.182 125.746 211.394 128.704 209.625 132.972L209.015 134.527C205.539 133.277 203.648 126.356 204.075 121.386C206.637 123.429 209.564 128.277 209.168 132.881L209.015 134.527ZM211.363 124.313L211.333 122.636C211.241 118.001 207.887 113.488 205.112 111.72C205.203 116.721 207.795 123.429 211.363 124.313L211.851 122.727C213.163 118.276 217.646 114.861 220.787 113.885C219.353 118.641 215.053 124.404 211.363 124.313ZM212.705 113.915L212.522 112.269C211.973 107.665 208.161 103.518 205.234 102.024C205.813 106.963 209.046 113.397 212.705 113.915L213.01 112.269C213.864 107.726 217.981 103.853 221 102.573C220.085 107.482 216.365 113.641 212.705 113.915ZM212.98 103.426L212.614 101.81C211.607 97.2976 207.399 93.5472 204.319 92.358C205.417 97.2366 209.29 103.274 212.98 103.426L213.132 101.78C213.529 97.1756 217.219 92.9068 220.116 91.3213C219.658 96.2914 216.609 102.786 212.98 103.426ZM212.187 92.9678C215.724 91.9616 218.103 85.1926 218.042 80.192C215.328 82.0519 212.095 86.6866 212.156 91.2908L212.187 92.9678C208.497 93.1813 204.045 87.5709 202.459 82.8142C205.63 83.6985 210.205 86.9915 211.668 91.3823L212.187 92.9678ZM210.357 82.6618C213.773 81.3202 215.48 74.3377 214.901 69.3676C212.4 71.502 209.625 76.4111 210.174 81.0153L210.357 82.6618C206.728 83.2411 201.696 78.0881 199.653 73.5449C202.886 74.0937 207.765 76.9294 209.656 81.1372L210.357 82.6618ZM207.491 72.5692C210.754 70.8922 211.729 63.7572 210.662 58.8786C208.375 61.2569 206.149 66.4099 207.125 70.9531L207.491 72.5692C203.923 73.5144 198.433 68.9102 195.933 64.5805C199.226 64.7939 204.35 67.1112 206.667 71.1361L207.491 72.5692ZM203.618 62.8425C206.698 60.83 206.942 53.6341 205.386 48.908C203.343 51.4997 201.635 56.8662 203.069 61.2569L203.618 62.8425C200.172 64.1536 194.225 60.0983 191.298 56.0429C194.591 55.9514 199.928 57.7199 202.642 61.5009L203.618 62.8425ZM198.799 53.5121C201.666 51.1948 201.208 44.0294 199.165 39.4557C197.397 42.2304 196.238 47.7493 198.128 51.9876L198.799 53.5121L197.702 52.262C194.652 48.786 189.132 47.5359 185.869 47.9932C189.193 51.7436 195.506 55.1587 198.799 53.5121ZM193.066 44.7612C189.956 46.7126 183.308 43.9684 179.648 40.5534C182.85 39.7911 188.461 40.4619 191.846 43.6025L193.066 44.7612L192.243 43.3281C189.956 39.3032 190.566 33.6928 192.029 30.7657C194.5 35.0649 195.689 42.1694 193.066 44.7612ZM186.479 36.5895C188.827 33.7538 186.937 26.8018 184.04 22.7465C182.881 25.8261 182.85 31.467 185.534 35.2174L186.479 36.5895C183.582 38.8459 176.69 36.7724 172.695 33.7538C175.806 32.6866 181.447 32.7781 185.137 35.5833L186.479 36.5895ZM179.069 29.1496L177.636 28.2959C173.671 25.8871 168.06 26.3444 165.071 27.747C169.371 30.3083 176.416 31.7109 179.069 29.1496L177.971 27.8995C174.921 24.4235 174.373 18.8131 175.226 15.642C178.55 19.3924 181.143 26.1005 179.069 29.1496ZM170.988 22.5025C168.609 25.3077 161.443 24.6369 156.929 22.5025C159.765 20.8255 165.315 19.8193 169.493 21.8012L170.988 22.5025L169.768 21.3439C166.383 18.2033 165.285 12.6539 165.803 9.4218C169.463 12.8368 172.726 19.24 170.988 22.5025ZM162.266 16.6787L160.711 16.0994C156.35 14.5443 150.922 16.0994 148.299 18.0813C152.995 19.7583 160.162 19.6973 162.266 16.6787L160.955 15.6725C157.265 12.8673 155.618 7.47036 155.801 4.20779C159.765 7.22643 163.669 13.2637 162.266 16.6787Z" fill="#00D1FF"/>
<path d="M60.0977 151.051L59.248 148.751L58.3936 151.051H60.0977ZM60.5957 152.35H57.8955L57.2949 154H55.6934L58.4473 146.998H60.0439L62.7979 154H61.1963L60.5957 152.35ZM68.5508 150.201H71.2998V152.799C71.2738 152.831 71.2314 152.88 71.1729 152.945C71.1175 153.007 70.9922 153.116 70.7969 153.272C70.6048 153.425 70.3997 153.562 70.1816 153.683C69.9668 153.8 69.6836 153.907 69.332 154.005C68.9837 154.103 68.624 154.151 68.2529 154.151C67.1852 154.151 66.2835 153.795 65.5479 153.082C64.8154 152.366 64.4492 151.505 64.4492 150.499C64.4492 149.493 64.8154 148.634 65.5479 147.921C66.2835 147.208 67.1852 146.852 68.2529 146.852C68.6208 146.852 68.9707 146.9 69.3027 146.998C69.6348 147.092 69.9066 147.208 70.1182 147.345C70.333 147.481 70.5218 147.618 70.6846 147.755C70.8506 147.892 70.9694 148.007 71.041 148.102L71.1533 148.248L70.2012 149.2C70.1816 149.174 70.154 149.138 70.1182 149.093C70.0856 149.044 70.0091 148.963 69.8887 148.849C69.7715 148.735 69.6429 148.635 69.5029 148.551C69.363 148.463 69.179 148.383 68.9512 148.312C68.7233 148.237 68.4906 148.199 68.2529 148.199C67.5986 148.199 67.0518 148.419 66.6123 148.858C66.1729 149.298 65.9531 149.845 65.9531 150.499C65.9531 151.153 66.1729 151.7 66.6123 152.14C67.0518 152.579 67.5986 152.799 68.2529 152.799C68.5654 152.799 68.8503 152.753 69.1074 152.662C69.3646 152.568 69.5452 152.473 69.6494 152.379L69.8008 152.252V151.3H68.5508V150.201ZM74.252 148.868C73.8158 149.311 73.5977 149.856 73.5977 150.504C73.5977 151.148 73.8158 151.692 74.252 152.135C74.6882 152.577 75.2188 152.799 75.8438 152.799C76.472 152.799 77.0042 152.577 77.4404 152.135C77.8766 151.692 78.0947 151.148 78.0947 150.504C78.0947 149.856 77.8766 149.311 77.4404 148.868C77.0042 148.422 76.472 148.199 75.8438 148.199C75.2188 148.199 74.6882 148.422 74.252 148.868ZM73.1436 153.082C72.4111 152.366 72.0449 151.505 72.0449 150.499C72.0449 149.493 72.4111 148.634 73.1436 147.921C73.8792 147.208 74.7793 146.852 75.8438 146.852C76.9115 146.852 77.8115 147.208 78.5439 147.921C79.2796 148.634 79.6475 149.493 79.6475 150.499C79.6475 151.505 79.2796 152.366 78.5439 153.082C77.8115 153.795 76.9115 154.151 75.8438 154.151C74.7793 154.151 73.8792 153.795 73.1436 153.082ZM82.3555 148.868C81.9193 149.311 81.7012 149.856 81.7012 150.504C81.7012 151.148 81.9193 151.692 82.3555 152.135C82.7917 152.577 83.3223 152.799 83.9473 152.799C84.5755 152.799 85.1077 152.577 85.5439 152.135C85.9801 151.692 86.1982 151.148 86.1982 150.504C86.1982 149.856 85.9801 149.311 85.5439 148.868C85.1077 148.422 84.5755 148.199 83.9473 148.199C83.3223 148.199 82.7917 148.422 82.3555 148.868ZM81.2471 153.082C80.5146 152.366 80.1484 151.505 80.1484 150.499C80.1484 149.493 80.5146 148.634 81.2471 147.921C81.9827 147.208 82.8828 146.852 83.9473 146.852C85.015 146.852 85.915 147.208 86.6475 147.921C87.3831 148.634 87.751 149.493 87.751 150.499C87.751 151.505 87.3831 152.366 86.6475 153.082C85.915 153.795 85.015 154.151 83.9473 154.151C82.8828 154.151 81.9827 153.795 81.2471 153.082ZM88.6523 146.998H91.2549C92.2738 146.998 93.1283 147.337 93.8184 148.014C94.5085 148.691 94.8535 149.519 94.8535 150.499C94.8535 151.479 94.5085 152.307 93.8184 152.984C93.1283 153.661 92.2738 154 91.2549 154H88.6523V146.998ZM91.2549 148.351H90.1562V152.652H91.2549C91.8343 152.652 92.3291 152.444 92.7393 152.027C93.1494 151.611 93.3545 151.103 93.3545 150.504C93.3545 149.902 93.1543 149.392 92.7539 148.976C92.3535 148.559 91.8538 148.351 91.2549 148.351ZM103.302 146.998V154H101.803V151.148H98.8047V154H97.3008V146.998H98.8047V149.801H101.803V146.998H103.302ZM106.107 152.652H109.857V154H104.604V146.998H109.755V148.351H106.107V149.752H108.954V151.1H106.107V152.652ZM114.357 151.051L113.508 148.751L112.653 151.051H114.357ZM114.855 152.35H112.155L111.555 154H109.953L112.707 146.998H114.304L117.058 154H115.456L114.855 152.35ZM122.31 154H117.559V146.998H119.062V152.652H122.31V154ZM121.653 146.998H127.151V148.351H125.154V154H123.655V148.351H121.653V146.998ZM133.751 146.998V154H132.252V151.148H129.254V154H127.75V146.998H129.254V149.801H132.252V146.998H133.751ZM136.604 154V146.998H138.107V154H136.604ZM142.456 151.949C142.456 151.715 142.337 151.526 142.1 151.383C141.865 151.24 141.577 151.121 141.235 151.026C140.897 150.929 140.558 150.815 140.22 150.685C139.884 150.554 139.598 150.34 139.36 150.04C139.123 149.741 139.004 149.361 139.004 148.902C139.004 148.336 139.23 147.853 139.683 147.452C140.138 147.052 140.729 146.852 141.455 146.852C141.742 146.852 142.018 146.886 142.285 146.954C142.552 147.019 142.77 147.097 142.939 147.188C143.112 147.276 143.262 147.368 143.389 147.462C143.519 147.553 143.612 147.633 143.667 147.701L143.755 147.799L142.856 148.751C142.817 148.705 142.762 148.65 142.69 148.585C142.622 148.517 142.476 148.427 142.251 148.316C142.026 148.206 141.795 148.15 141.558 148.15C141.271 148.15 141.04 148.224 140.864 148.37C140.692 148.517 140.605 148.694 140.605 148.902C140.605 149.137 140.723 149.326 140.957 149.469C141.195 149.609 141.481 149.728 141.816 149.825C142.155 149.923 142.493 150.037 142.832 150.167C143.174 150.297 143.464 150.512 143.701 150.812C143.939 151.111 144.058 151.49 144.058 151.949C144.058 152.597 143.822 153.126 143.35 153.536C142.881 153.946 142.233 154.151 141.406 154.151C141.081 154.151 140.765 154.111 140.459 154.029C140.156 153.951 139.906 153.857 139.707 153.746C139.512 153.635 139.339 153.523 139.189 153.409C139.04 153.295 138.932 153.199 138.867 153.121L138.755 152.999L139.658 152.101C139.704 152.153 139.767 152.221 139.849 152.306C139.933 152.387 140.119 152.498 140.405 152.638C140.692 152.778 140.991 152.848 141.304 152.848C141.665 152.848 141.947 152.763 142.148 152.594C142.354 152.424 142.456 152.21 142.456 151.949ZM145.753 146.998H151.251V148.351H149.254V154H147.755V148.351H145.753V146.998ZM157.851 146.998V154H156.352V151.148H153.354V154H151.85V146.998H153.354V149.801H156.352V146.998H157.851ZM160.656 152.652H164.406V154H159.152V146.998H164.304V148.351H160.656V149.752H163.503V151.1H160.656V152.652ZM60.8633 162.05L63.2852 158.998H64.6133V166H63.1143V161.332L60.8633 164.198L58.6172 161.352V166H57.1133V158.998H58.4658L60.8633 162.05ZM67.7168 160.868C67.2806 161.311 67.0625 161.856 67.0625 162.504C67.0625 163.148 67.2806 163.692 67.7168 164.135C68.153 164.577 68.6836 164.799 69.3086 164.799C69.9368 164.799 70.4691 164.577 70.9053 164.135C71.3415 163.692 71.5596 163.148 71.5596 162.504C71.5596 161.856 71.3415 161.311 70.9053 160.868C70.4691 160.422 69.9368 160.199 69.3086 160.199C68.6836 160.199 68.153 160.422 67.7168 160.868ZM66.6084 165.082C65.876 164.366 65.5098 163.505 65.5098 162.499C65.5098 161.493 65.876 160.634 66.6084 159.921C67.3441 159.208 68.2441 158.852 69.3086 158.852C70.3763 158.852 71.2764 159.208 72.0088 159.921C72.7445 160.634 73.1123 161.493 73.1123 162.499C73.1123 163.505 72.7445 164.366 72.0088 165.082C71.2764 165.795 70.3763 166.151 69.3086 166.151C68.2441 166.151 67.3441 165.795 66.6084 165.082ZM77.0654 163.949C77.0654 163.715 76.9466 163.526 76.709 163.383C76.4746 163.24 76.1865 163.121 75.8447 163.026C75.5062 162.929 75.1676 162.815 74.8291 162.685C74.4938 162.554 74.2074 162.34 73.9697 162.04C73.7321 161.741 73.6133 161.361 73.6133 160.902C73.6133 160.336 73.8395 159.853 74.292 159.452C74.7477 159.052 75.3385 158.852 76.0645 158.852C76.3509 158.852 76.6276 158.886 76.8945 158.954C77.1615 159.019 77.3796 159.097 77.5488 159.188C77.7214 159.276 77.8711 159.368 77.998 159.462C78.1283 159.553 78.221 159.633 78.2764 159.701L78.3643 159.799L77.4658 160.751C77.4268 160.705 77.3714 160.65 77.2998 160.585C77.2314 160.517 77.085 160.427 76.8604 160.316C76.6357 160.206 76.4046 160.15 76.167 160.15C75.8805 160.15 75.6494 160.224 75.4736 160.37C75.3011 160.517 75.2148 160.694 75.2148 160.902C75.2148 161.137 75.332 161.326 75.5664 161.469C75.804 161.609 76.0905 161.728 76.4258 161.825C76.7643 161.923 77.1029 162.037 77.4414 162.167C77.7832 162.297 78.0729 162.512 78.3105 162.812C78.5482 163.111 78.667 163.49 78.667 163.949C78.667 164.597 78.431 165.126 77.959 165.536C77.4902 165.946 76.8424 166.151 76.0156 166.151C75.6901 166.151 75.3743 166.111 75.0684 166.029C74.7656 165.951 74.515 165.857 74.3164 165.746C74.1211 165.635 73.9486 165.523 73.7988 165.409C73.6491 165.295 73.5417 165.199 73.4766 165.121L73.3643 164.999L74.2676 164.101C74.3132 164.153 74.3766 164.221 74.458 164.306C74.5426 164.387 74.7282 164.498 75.0146 164.638C75.3011 164.778 75.6006 164.848 75.9131 164.848C76.2744 164.848 76.556 164.763 76.7578 164.594C76.9629 164.424 77.0654 164.21 77.0654 163.949ZM78.6064 158.998H84.1045V160.351H82.1074V166H80.6084V160.351H78.6064V158.998ZM85.7539 166V158.998H87.2578V166H85.7539ZM92.3047 162.05L94.7266 158.998H96.0547V166H94.5557V161.332L92.3047 164.198L90.0586 161.352V166H88.5547V158.998H89.9072L92.3047 162.05ZM97.3516 158.998H100.301C101.02 158.998 101.616 159.224 102.088 159.677C102.563 160.126 102.801 160.684 102.801 161.352C102.801 162.016 102.565 162.574 102.093 163.026C101.621 163.476 101.023 163.7 100.301 163.7H98.8555V166H97.3516V158.998ZM100.252 160.351H98.8555V162.348H100.252C100.551 162.348 100.8 162.252 100.999 162.06C101.201 161.868 101.302 161.632 101.302 161.352C101.302 161.072 101.201 160.836 100.999 160.644C100.8 160.448 100.551 160.351 100.252 160.351ZM105.455 160.868C105.019 161.311 104.801 161.856 104.801 162.504C104.801 163.148 105.019 163.692 105.455 164.135C105.891 164.577 106.422 164.799 107.047 164.799C107.675 164.799 108.207 164.577 108.644 164.135C109.08 163.692 109.298 163.148 109.298 162.504C109.298 161.856 109.08 161.311 108.644 160.868C108.207 160.422 107.675 160.199 107.047 160.199C106.422 160.199 105.891 160.422 105.455 160.868ZM104.347 165.082C103.614 164.366 103.248 163.505 103.248 162.499C103.248 161.493 103.614 160.634 104.347 159.921C105.082 159.208 105.982 158.852 107.047 158.852C108.115 158.852 109.015 159.208 109.747 159.921C110.483 160.634 110.851 161.493 110.851 162.499C110.851 163.505 110.483 164.366 109.747 165.082C109.015 165.795 108.115 166.151 107.047 166.151C105.982 166.151 105.082 165.795 104.347 165.082ZM111.752 166V158.998H114.853C115.546 158.998 116.119 159.221 116.571 159.667C117.027 160.11 117.255 160.653 117.255 161.298C117.255 161.578 117.211 161.84 117.123 162.084C117.035 162.328 116.931 162.525 116.811 162.675C116.693 162.825 116.573 162.953 116.449 163.061C116.326 163.168 116.22 163.241 116.132 163.28L116.005 163.349L117.504 166H115.902L114.555 163.549H113.256V166H111.752ZM115.756 161.298C115.756 161.024 115.665 160.798 115.482 160.619C115.303 160.44 115.077 160.351 114.804 160.351H113.256V162.201H114.804C115.077 162.201 115.303 162.115 115.482 161.942C115.665 161.767 115.756 161.552 115.756 161.298ZM117.448 158.998H122.946V160.351H120.949V166H119.45V160.351H117.448V158.998ZM126.543 163.051L125.693 160.751L124.839 163.051H126.543ZM127.041 164.35H124.341L123.74 166H122.139L124.893 158.998H126.489L129.243 166H127.642L127.041 164.35ZM134.495 158.998H135.994V166H134.695L131.248 161.552V166H129.744V158.998H131.048L134.495 163.451V158.998ZM136.593 158.998H142.091V160.351H140.094V166H138.595V160.351H136.593V158.998ZM144.24 158.998H149.392V160.351H145.744V161.898H148.591V163.251H145.744V166H144.24V158.998ZM151.787 160.868C151.351 161.311 151.133 161.856 151.133 162.504C151.133 163.148 151.351 163.692 151.787 164.135C152.223 164.577 152.754 164.799 153.379 164.799C154.007 164.799 154.539 164.577 154.976 164.135C155.412 163.692 155.63 163.148 155.63 162.504C155.63 161.856 155.412 161.311 154.976 160.868C154.539 160.422 154.007 160.199 153.379 160.199C152.754 160.199 152.223 160.422 151.787 160.868ZM150.679 165.082C149.946 164.366 149.58 163.505 149.58 162.499C149.58 161.493 149.946 160.634 150.679 159.921C151.414 159.208 152.314 158.852 153.379 158.852C154.447 158.852 155.347 159.208 156.079 159.921C156.815 160.634 157.183 161.493 157.183 162.499C157.183 163.505 156.815 164.366 156.079 165.082C155.347 165.795 154.447 166.151 153.379 166.151C152.314 166.151 151.414 165.795 150.679 165.082ZM158.084 166V158.998H161.185C161.878 158.998 162.451 159.221 162.903 159.667C163.359 160.11 163.587 160.653 163.587 161.298C163.587 161.578 163.543 161.84 163.455 162.084C163.367 162.328 163.263 162.525 163.143 162.675C163.025 162.825 162.905 162.953 162.781 163.061C162.658 163.168 162.552 163.241 162.464 163.28L162.337 163.349L163.836 166H162.234L160.887 163.549H159.588V166H158.084ZM162.088 161.298C162.088 161.024 161.997 160.798 161.814 160.619C161.635 160.44 161.409 160.351 161.136 160.351H159.588V162.201H161.136C161.409 162.201 161.635 162.115 161.814 161.942C161.997 161.767 162.088 161.552 162.088 161.298ZM89.0762 175.051L88.2266 172.751L87.3721 175.051H89.0762ZM89.5742 176.35H86.874L86.2734 178H84.6719L87.4258 170.998H89.0225L91.7764 178H90.1748L89.5742 176.35ZM97.0283 178H92.2773V170.998H93.7812V176.652H97.0283V178ZM102.427 178H97.6758V170.998H99.1797V176.652H102.427V178ZM106.432 172.868C105.995 173.311 105.777 173.856 105.777 174.504C105.777 175.148 105.995 175.692 106.432 176.135C106.868 176.577 107.398 176.799 108.023 176.799C108.652 176.799 109.184 176.577 109.62 176.135C110.056 175.692 110.274 175.148 110.274 174.504C110.274 173.856 110.056 173.311 109.62 172.868C109.184 172.422 108.652 172.199 108.023 172.199C107.398 172.199 106.868 172.422 106.432 172.868ZM105.323 177.082C104.591 176.366 104.225 175.505 104.225 174.499C104.225 173.493 104.591 172.634 105.323 171.921C106.059 171.208 106.959 170.852 108.023 170.852C109.091 170.852 109.991 171.208 110.724 171.921C111.459 172.634 111.827 173.493 111.827 174.499C111.827 175.505 111.459 176.366 110.724 177.082C109.991 177.795 109.091 178.151 108.023 178.151C106.959 178.151 106.059 177.795 105.323 177.082ZM112.729 170.998H117.88V172.351H114.232V173.898H117.079V175.251H114.232V178H112.729V170.998ZM122.129 176.325C122.435 176.641 122.801 176.799 123.228 176.799C123.654 176.799 124.019 176.641 124.321 176.325C124.624 176.009 124.775 175.617 124.775 175.148V170.998H126.274V175.148C126.274 176.001 125.985 176.716 125.405 177.292C124.826 177.865 124.098 178.151 123.223 178.151C122.35 178.151 121.624 177.865 121.045 177.292C120.465 176.716 120.176 176.001 120.176 175.148V170.998H121.675V175.148C121.675 175.614 121.826 176.006 122.129 176.325ZM130.579 175.949C130.579 175.715 130.46 175.526 130.223 175.383C129.988 175.24 129.7 175.121 129.358 175.026C129.02 174.929 128.681 174.815 128.343 174.685C128.007 174.554 127.721 174.34 127.483 174.04C127.246 173.741 127.127 173.361 127.127 172.902C127.127 172.336 127.353 171.853 127.806 171.452C128.261 171.052 128.852 170.852 129.578 170.852C129.865 170.852 130.141 170.886 130.408 170.954C130.675 171.019 130.893 171.097 131.062 171.188C131.235 171.276 131.385 171.368 131.512 171.462C131.642 171.553 131.735 171.633 131.79 171.701L131.878 171.799L130.979 172.751C130.94 172.705 130.885 172.65 130.813 172.585C130.745 172.517 130.599 172.427 130.374 172.316C130.149 172.206 129.918 172.15 129.681 172.15C129.394 172.15 129.163 172.224 128.987 172.37C128.815 172.517 128.729 172.694 128.729 172.902C128.729 173.137 128.846 173.326 129.08 173.469C129.318 173.609 129.604 173.728 129.939 173.825C130.278 173.923 130.617 174.037 130.955 174.167C131.297 174.297 131.587 174.512 131.824 174.812C132.062 175.111 132.181 175.49 132.181 175.949C132.181 176.597 131.945 177.126 131.473 177.536C131.004 177.946 130.356 178.151 129.529 178.151C129.204 178.151 128.888 178.111 128.582 178.029C128.279 177.951 128.029 177.857 127.83 177.746C127.635 177.635 127.462 177.523 127.312 177.409C127.163 177.295 127.055 177.199 126.99 177.121L126.878 176.999L127.781 176.101C127.827 176.153 127.89 176.221 127.972 176.306C128.056 176.387 128.242 176.498 128.528 176.638C128.815 176.778 129.114 176.848 129.427 176.848C129.788 176.848 130.07 176.763 130.271 176.594C130.477 176.424 130.579 176.21 130.579 175.949ZM134.327 175.998H133.224L132.975 170.998H134.576L134.327 175.998ZM133.209 177.873C133.053 177.723 132.975 177.549 132.975 177.351C132.975 177.149 133.053 176.973 133.209 176.823C133.365 176.674 133.554 176.599 133.775 176.599C133.997 176.599 134.186 176.674 134.342 176.823C134.498 176.973 134.576 177.149 134.576 177.351C134.576 177.549 134.498 177.723 134.342 177.873C134.186 178.023 133.997 178.098 133.775 178.098C133.554 178.098 133.365 178.023 133.209 177.873Z" fill="#00D1FF"/>
</svg>
