<svg width="65" height="54" viewBox="0 0 65 54" fill="none" xmlns="http://www.w3.org/2000/svg">
<g clip-path="url(#clip0_385_570)">
<path fill-rule="evenodd" clip-rule="evenodd" d="M50.5556 51.4609L47.9147 53.9999L33.3266 39.9759C32.4875 40.7011 31.5658 41.3473 30.5598 41.9104C29.5537 42.4751 28.5045 42.9586 27.4157 43.3609C26.3252 43.7653 25.1718 44.0677 23.9573 44.2677C22.7409 44.4697 21.5462 44.5704 20.3733 44.5704C17.522 44.5704 14.8594 44.0468 12.3875 42.9986C9.91344 41.9518 7.75397 40.5406 5.91067 38.7671C4.06572 36.9951 2.61948 34.9189 1.57219 32.5412C0.522671 30.1647 0 27.6448 0 24.985C0 22.2461 0.522671 19.6863 1.57219 17.3085C2.61948 14.932 4.06572 12.856 5.91067 11.082C7.75397 9.31037 9.91344 7.92026 12.3875 6.91165C14.8594 5.9048 17.522 5.3999 20.3733 5.3999C23.1398 5.3999 25.7594 5.9048 28.233 6.91165C30.7052 7.92026 32.8647 9.31037 34.71 11.082C36.5531 12.856 38.021 14.932 39.1115 17.3085C40.2 19.6863 40.7464 22.2461 40.7464 24.985C40.7464 26.1147 40.6401 27.2634 40.4319 28.4307C40.2217 29.5999 39.9073 30.7085 39.4887 31.7553C39.0682 32.8036 38.5651 33.8103 37.9798 34.7776C37.3921 35.7448 36.7221 36.6326 35.9675 37.4369L50.5556 51.4609ZM2.13804 24.985C2.13804 27.4031 2.59778 29.6603 3.5213 31.7553C4.44298 33.8518 5.74187 35.7048 7.41991 37.3166C9.09606 38.9296 11.0454 40.1987 13.2676 41.1245C15.4882 42.0517 17.858 42.5146 20.3733 42.5146C22.8883 42.5146 25.2348 42.0517 27.4157 41.1245C29.595 40.1987 31.5228 38.9296 33.2006 37.3166C34.8767 35.7048 36.1974 33.8518 37.1622 31.7553C38.1252 29.6603 38.6086 27.4031 38.6086 24.985C38.6086 22.5672 38.1252 20.2913 37.1622 18.1548C36.1974 16.0203 34.8767 14.1462 33.2006 12.5332C31.5228 10.9215 29.595 9.67334 27.4157 8.78504C25.2348 7.89926 22.8883 7.45548 20.3733 7.45548C17.858 7.45548 15.4882 7.89926 13.2676 8.78504C11.0454 9.67334 9.09606 10.9215 7.41991 12.5332C5.74187 14.1462 4.44298 16.0203 3.5213 18.1548C2.59778 20.2913 2.13804 22.5672 2.13804 24.985Z" fill="white"/>
</g>
<defs>
<clipPath id="clip0_385_570">
<rect width="65" height="54" fill="white"/>
</clipPath>
</defs>
</svg>
